G04 #@! TF.FileFunction,Copper,L2,Bot,Signal*
%FSLAX46Y46*%
G04 Gerber Fmt 4.6, Leading zero omitted, Abs format (unit mm)*
G04 Created by KiCad (PCBNEW 4.0.2-stable) date Saturday, August 27, 2016 'PMt' 12:15:44 PM*
%MOMM*%
G01*
G04 APERTURE LIST*
%ADD10C,0.100000*%
%ADD11R,3.500120X3.500120*%
%ADD12R,1.900000X2.000000*%
%ADD13C,1.900000*%
%ADD14O,2.540000X2.540000*%
%ADD15O,2.247900X2.247900*%
%ADD16C,0.600000*%
%ADD17C,0.250000*%
%ADD18C,0.254000*%
G04 APERTURE END LIST*
D10*
D11*
X47094140Y-118364000D03*
X41094660Y-118364000D03*
X44094400Y-123063000D03*
D12*
X86106000Y-112268000D03*
D13*
X88646000Y-112268000D03*
D12*
X147320000Y-112268000D03*
D13*
X149860000Y-112268000D03*
D12*
X93980000Y-112268000D03*
D13*
X96520000Y-112268000D03*
D12*
X154940000Y-112268000D03*
D13*
X157480000Y-112268000D03*
D12*
X101600000Y-112268000D03*
D13*
X104140000Y-112268000D03*
D12*
X162560000Y-112268000D03*
D13*
X165100000Y-112268000D03*
D12*
X109220000Y-112268000D03*
D13*
X111760000Y-112268000D03*
D12*
X170180000Y-112268000D03*
D13*
X172720000Y-112268000D03*
D12*
X116840000Y-112268000D03*
D13*
X119380000Y-112268000D03*
D12*
X177800000Y-112268000D03*
D13*
X180340000Y-112268000D03*
D12*
X124460000Y-112268000D03*
D13*
X127000000Y-112268000D03*
D12*
X185420000Y-112268000D03*
D13*
X187960000Y-112268000D03*
D12*
X132080000Y-112268000D03*
D13*
X134620000Y-112268000D03*
D12*
X193040000Y-112268000D03*
D13*
X195580000Y-112268000D03*
D12*
X139700000Y-112268000D03*
D13*
X142240000Y-112268000D03*
D12*
X200660000Y-112268000D03*
D13*
X203200000Y-112268000D03*
D14*
X39527480Y-105255060D03*
D15*
X44528740Y-102857300D03*
X44528740Y-107655360D03*
X44528740Y-110355380D03*
X44528740Y-100157280D03*
D16*
X55626000Y-103886000D03*
X60579000Y-103378000D03*
X69088000Y-101473000D03*
X60579000Y-114300000D03*
X77470000Y-119380000D03*
X72898000Y-118364000D03*
X85979000Y-99822000D03*
X93853000Y-99822000D03*
X101473000Y-99822000D03*
X109093000Y-99822000D03*
X116713000Y-99822000D03*
X124333000Y-99822000D03*
X139573000Y-99822000D03*
X131953000Y-99822000D03*
X100584000Y-110236000D03*
X102743000Y-110236000D03*
X108077000Y-110236000D03*
X110363000Y-110236000D03*
X115443000Y-110236000D03*
X118110000Y-110236000D03*
X123444000Y-110236000D03*
X125603000Y-110236000D03*
X130810000Y-110236000D03*
X133223000Y-110236000D03*
X138684000Y-110236000D03*
X140843000Y-110236000D03*
X108077000Y-109093000D03*
X110363000Y-109093000D03*
X115443000Y-109093000D03*
X118110000Y-109093000D03*
X123444000Y-109093000D03*
X125603000Y-109093000D03*
X130810000Y-109093000D03*
X133223000Y-109093000D03*
X138684000Y-109093000D03*
X140843000Y-109093000D03*
X115443000Y-107950000D03*
X118110000Y-107950000D03*
X123444000Y-107950000D03*
X125603000Y-107950000D03*
X130810000Y-107950000D03*
X133223000Y-107950000D03*
X138684000Y-107950000D03*
X140843000Y-107950000D03*
X123444000Y-106934000D03*
X125603000Y-106934000D03*
X130810000Y-106934000D03*
X133223000Y-106934000D03*
X138684000Y-106934000D03*
X140843000Y-106934000D03*
X130810000Y-105918000D03*
X133223000Y-105918000D03*
X138684000Y-105918000D03*
X140843000Y-105918000D03*
X138684000Y-104902000D03*
X140843000Y-104902000D03*
X90043000Y-110109000D03*
X87122000Y-110109000D03*
X97663000Y-107569000D03*
X85344000Y-107569000D03*
X105410000Y-103759000D03*
X85344000Y-103759000D03*
X113157000Y-102616000D03*
X85344000Y-102616000D03*
X120904000Y-106299000D03*
X85344000Y-106299000D03*
X128651000Y-105029000D03*
X85344000Y-105029000D03*
X58674000Y-111506000D03*
X58674000Y-109728000D03*
D17*
X149860000Y-112268000D02*
X149860000Y-113665000D01*
X86106000Y-113411000D02*
X86106000Y-112268000D01*
X86741000Y-114046000D02*
X86106000Y-113411000D01*
X149479000Y-114046000D02*
X86741000Y-114046000D01*
X149860000Y-113665000D02*
X149479000Y-114046000D01*
X157480000Y-112268000D02*
X157480000Y-110744000D01*
X93980000Y-110490000D02*
X93980000Y-112268000D01*
X94234000Y-110236000D02*
X93980000Y-110490000D01*
X100584000Y-110236000D02*
X94234000Y-110236000D01*
X108077000Y-110236000D02*
X102743000Y-110236000D01*
X115443000Y-110236000D02*
X110363000Y-110236000D01*
X123444000Y-110236000D02*
X118110000Y-110236000D01*
X130810000Y-110236000D02*
X125603000Y-110236000D01*
X138684000Y-110236000D02*
X133223000Y-110236000D01*
X156972000Y-110236000D02*
X140843000Y-110236000D01*
X157480000Y-110744000D02*
X156972000Y-110236000D01*
X165100000Y-112268000D02*
X165100000Y-109601000D01*
X101600000Y-109347000D02*
X101600000Y-112268000D01*
X101854000Y-109093000D02*
X101600000Y-109347000D01*
X102362000Y-109093000D02*
X101854000Y-109093000D01*
X108077000Y-109093000D02*
X102362000Y-109093000D01*
X115443000Y-109093000D02*
X110363000Y-109093000D01*
X123444000Y-109093000D02*
X118110000Y-109093000D01*
X130810000Y-109093000D02*
X125603000Y-109093000D01*
X138684000Y-109093000D02*
X133223000Y-109093000D01*
X164592000Y-109093000D02*
X140843000Y-109093000D01*
X165100000Y-109601000D02*
X164592000Y-109093000D01*
X172720000Y-112268000D02*
X172720000Y-109220000D01*
X109220000Y-108585000D02*
X109220000Y-112268000D01*
X109855000Y-107950000D02*
X109220000Y-108585000D01*
X115443000Y-107950000D02*
X109855000Y-107950000D01*
X123444000Y-107950000D02*
X118110000Y-107950000D01*
X130810000Y-107950000D02*
X125603000Y-107950000D01*
X138684000Y-107950000D02*
X133223000Y-107950000D01*
X171450000Y-107950000D02*
X140843000Y-107950000D01*
X172720000Y-109220000D02*
X171450000Y-107950000D01*
X180340000Y-112268000D02*
X180340000Y-107823000D01*
X116840000Y-107823000D02*
X116840000Y-112268000D01*
X117729000Y-106934000D02*
X116840000Y-107823000D01*
X123444000Y-106934000D02*
X117729000Y-106934000D01*
X130810000Y-106934000D02*
X125603000Y-106934000D01*
X138684000Y-106934000D02*
X133223000Y-106934000D01*
X179451000Y-106934000D02*
X140843000Y-106934000D01*
X180340000Y-107823000D02*
X179451000Y-106934000D01*
X187960000Y-112268000D02*
X187960000Y-107696000D01*
X124460000Y-106680000D02*
X124460000Y-112268000D01*
X125222000Y-105918000D02*
X124460000Y-106680000D01*
X130810000Y-105918000D02*
X125222000Y-105918000D01*
X138684000Y-105918000D02*
X133223000Y-105918000D01*
X186182000Y-105918000D02*
X140843000Y-105918000D01*
X187960000Y-107696000D02*
X186182000Y-105918000D01*
X195580000Y-112268000D02*
X195580000Y-106299000D01*
X132080000Y-105537000D02*
X132080000Y-112268000D01*
X132715000Y-104902000D02*
X132080000Y-105537000D01*
X133096000Y-104902000D02*
X132715000Y-104902000D01*
X138684000Y-104902000D02*
X133096000Y-104902000D01*
X194183000Y-104902000D02*
X140843000Y-104902000D01*
X195580000Y-106299000D02*
X194183000Y-104902000D01*
X203200000Y-112268000D02*
X203200000Y-105410000D01*
X139700000Y-104394000D02*
X139700000Y-112268000D01*
X140462000Y-103632000D02*
X139700000Y-104394000D01*
X201422000Y-103632000D02*
X140462000Y-103632000D01*
X203200000Y-105410000D02*
X201422000Y-103632000D01*
X87122000Y-110109000D02*
X90043000Y-110109000D01*
X85344000Y-107569000D02*
X97663000Y-107569000D01*
X90043000Y-103759000D02*
X105410000Y-103759000D01*
X85344000Y-103759000D02*
X90043000Y-103759000D01*
X85344000Y-102616000D02*
X113157000Y-102616000D01*
X85344000Y-106299000D02*
X120904000Y-106299000D01*
X85344000Y-105029000D02*
X128651000Y-105029000D01*
X58674000Y-109728000D02*
X58674000Y-111506000D01*
D18*
G36*
X205637288Y-98589550D02*
X205980873Y-98819127D01*
X206210449Y-99162712D01*
X206300000Y-99612912D01*
X206300000Y-124923088D01*
X206210449Y-125373288D01*
X205980873Y-125716873D01*
X205637288Y-125946450D01*
X205187088Y-126036000D01*
X34588912Y-126036000D01*
X34138712Y-125946449D01*
X33795127Y-125716873D01*
X33565550Y-125373288D01*
X33476000Y-124923088D01*
X33476000Y-121312940D01*
X41955876Y-121312940D01*
X41955876Y-124813060D01*
X41982443Y-124954250D01*
X42065886Y-125083925D01*
X42193206Y-125170919D01*
X42344340Y-125201524D01*
X45844460Y-125201524D01*
X45985650Y-125174957D01*
X46115325Y-125091514D01*
X46202319Y-124964194D01*
X46232924Y-124813060D01*
X46232924Y-121312940D01*
X46206357Y-121171750D01*
X46122914Y-121042075D01*
X45995594Y-120955081D01*
X45844460Y-120924476D01*
X42344340Y-120924476D01*
X42203150Y-120951043D01*
X42073475Y-121034486D01*
X41986481Y-121161806D01*
X41955876Y-121312940D01*
X33476000Y-121312940D01*
X33476000Y-116613940D01*
X38956136Y-116613940D01*
X38956136Y-120114060D01*
X38982703Y-120255250D01*
X39066146Y-120384925D01*
X39193466Y-120471919D01*
X39344600Y-120502524D01*
X42844720Y-120502524D01*
X42985910Y-120475957D01*
X43115585Y-120392514D01*
X43202579Y-120265194D01*
X43233184Y-120114060D01*
X43233184Y-118649750D01*
X44709080Y-118649750D01*
X44709080Y-120240370D01*
X44805753Y-120473759D01*
X44984382Y-120652387D01*
X45217771Y-120749060D01*
X46808390Y-120749060D01*
X46967140Y-120590310D01*
X46967140Y-118491000D01*
X47221140Y-118491000D01*
X47221140Y-120590310D01*
X47379890Y-120749060D01*
X48970509Y-120749060D01*
X49203898Y-120652387D01*
X49382527Y-120473759D01*
X49479200Y-120240370D01*
X49479200Y-118649750D01*
X49320450Y-118491000D01*
X47221140Y-118491000D01*
X46967140Y-118491000D01*
X44867830Y-118491000D01*
X44709080Y-118649750D01*
X43233184Y-118649750D01*
X43233184Y-116613940D01*
X43209417Y-116487630D01*
X44709080Y-116487630D01*
X44709080Y-118078250D01*
X44867830Y-118237000D01*
X46967140Y-118237000D01*
X46967140Y-116137690D01*
X47221140Y-116137690D01*
X47221140Y-118237000D01*
X49320450Y-118237000D01*
X49479200Y-118078250D01*
X49479200Y-116487630D01*
X49382527Y-116254241D01*
X49203898Y-116075613D01*
X48970509Y-115978940D01*
X47379890Y-115978940D01*
X47221140Y-116137690D01*
X46967140Y-116137690D01*
X46808390Y-115978940D01*
X45217771Y-115978940D01*
X44984382Y-116075613D01*
X44805753Y-116254241D01*
X44709080Y-116487630D01*
X43209417Y-116487630D01*
X43206617Y-116472750D01*
X43123174Y-116343075D01*
X42995854Y-116256081D01*
X42844720Y-116225476D01*
X39344600Y-116225476D01*
X39203410Y-116252043D01*
X39073735Y-116335486D01*
X38986741Y-116462806D01*
X38956136Y-116613940D01*
X33476000Y-116613940D01*
X33476000Y-110477624D01*
X38396984Y-110477624D01*
X38568699Y-110893207D01*
X38886380Y-111211443D01*
X39301663Y-111383883D01*
X39751324Y-111384276D01*
X40166907Y-111212561D01*
X40485143Y-110894880D01*
X40657583Y-110479597D01*
X40657976Y-110029936D01*
X40486261Y-109614353D01*
X40168580Y-109296117D01*
X39753297Y-109123677D01*
X39303636Y-109123284D01*
X38888053Y-109294999D01*
X38569817Y-109612680D01*
X38397377Y-110027963D01*
X38396984Y-110477624D01*
X33476000Y-110477624D01*
X33476000Y-105255060D01*
X37844135Y-105255060D01*
X37969810Y-105886870D01*
X38327702Y-106422493D01*
X38863325Y-106780385D01*
X39495135Y-106906060D01*
X39559825Y-106906060D01*
X40191635Y-106780385D01*
X40727258Y-106422493D01*
X41085150Y-105886870D01*
X41210825Y-105255060D01*
X41085150Y-104623250D01*
X40727258Y-104087627D01*
X40191635Y-103729735D01*
X39559825Y-103604060D01*
X39495135Y-103604060D01*
X38863325Y-103729735D01*
X38327702Y-104087627D01*
X37969810Y-104623250D01*
X37844135Y-105255060D01*
X33476000Y-105255060D01*
X33476000Y-100480184D01*
X38396984Y-100480184D01*
X38568699Y-100895767D01*
X38886380Y-101214003D01*
X39301663Y-101386443D01*
X39751324Y-101386836D01*
X40166907Y-101215121D01*
X40485143Y-100897440D01*
X40657583Y-100482157D01*
X40657866Y-100157280D01*
X42994306Y-100157280D01*
X43108863Y-100733199D01*
X43435096Y-101221440D01*
X43862900Y-101507290D01*
X43435096Y-101793140D01*
X43108863Y-102281381D01*
X42994306Y-102857300D01*
X43108863Y-103433219D01*
X43435096Y-103921460D01*
X43923337Y-104247693D01*
X43979745Y-104258913D01*
X43889313Y-104296279D01*
X43571077Y-104613960D01*
X43398637Y-105029243D01*
X43398244Y-105478904D01*
X43569959Y-105894487D01*
X43887640Y-106212723D01*
X43984269Y-106252847D01*
X43923337Y-106264967D01*
X43435096Y-106591200D01*
X43108863Y-107079441D01*
X42994306Y-107655360D01*
X43108863Y-108231279D01*
X43435096Y-108719520D01*
X43862900Y-109005370D01*
X43435096Y-109291220D01*
X43108863Y-109779461D01*
X42994306Y-110355380D01*
X43108863Y-110931299D01*
X43435096Y-111419540D01*
X43923337Y-111745773D01*
X44499256Y-111860330D01*
X44558224Y-111860330D01*
X45134143Y-111745773D01*
X45622384Y-111419540D01*
X45948617Y-110931299D01*
X46063174Y-110355380D01*
X45965208Y-109862865D01*
X57992882Y-109862865D01*
X58096339Y-110113252D01*
X58168000Y-110185038D01*
X58168000Y-111048877D01*
X58097013Y-111119741D01*
X57993118Y-111369946D01*
X57992882Y-111640865D01*
X58096339Y-111891252D01*
X58287741Y-112082987D01*
X58537946Y-112186882D01*
X58808865Y-112187118D01*
X59059252Y-112083661D01*
X59250987Y-111892259D01*
X59354882Y-111642054D01*
X59355118Y-111371135D01*
X59251661Y-111120748D01*
X59180000Y-111048962D01*
X59180000Y-110243865D01*
X86440882Y-110243865D01*
X86544339Y-110494252D01*
X86735741Y-110685987D01*
X86985946Y-110789882D01*
X87256865Y-110790118D01*
X87507252Y-110686661D01*
X87579038Y-110615000D01*
X89585877Y-110615000D01*
X89656741Y-110685987D01*
X89906946Y-110789882D01*
X90177865Y-110790118D01*
X90428252Y-110686661D01*
X90619987Y-110495259D01*
X90723882Y-110245054D01*
X90724118Y-109974135D01*
X90620661Y-109723748D01*
X90429259Y-109532013D01*
X90179054Y-109428118D01*
X89908135Y-109427882D01*
X89657748Y-109531339D01*
X89585962Y-109603000D01*
X87579123Y-109603000D01*
X87508259Y-109532013D01*
X87258054Y-109428118D01*
X86987135Y-109427882D01*
X86736748Y-109531339D01*
X86545013Y-109722741D01*
X86441118Y-109972946D01*
X86440882Y-110243865D01*
X59180000Y-110243865D01*
X59180000Y-110185123D01*
X59250987Y-110114259D01*
X59354882Y-109864054D01*
X59355118Y-109593135D01*
X59251661Y-109342748D01*
X59060259Y-109151013D01*
X58810054Y-109047118D01*
X58539135Y-109046882D01*
X58288748Y-109150339D01*
X58097013Y-109341741D01*
X57993118Y-109591946D01*
X57992882Y-109862865D01*
X45965208Y-109862865D01*
X45948617Y-109779461D01*
X45622384Y-109291220D01*
X45194580Y-109005370D01*
X45622384Y-108719520D01*
X45948617Y-108231279D01*
X46063174Y-107655360D01*
X45948617Y-107079441D01*
X45622384Y-106591200D01*
X45134143Y-106264967D01*
X45073585Y-106252921D01*
X45168167Y-106213841D01*
X45486403Y-105896160D01*
X45658843Y-105480877D01*
X45659236Y-105031216D01*
X45487521Y-104615633D01*
X45169840Y-104297397D01*
X45077347Y-104258990D01*
X45134143Y-104247693D01*
X45622384Y-103921460D01*
X45948617Y-103433219D01*
X46063174Y-102857300D01*
X46042003Y-102750865D01*
X84662882Y-102750865D01*
X84766339Y-103001252D01*
X84952420Y-103187656D01*
X84767013Y-103372741D01*
X84663118Y-103622946D01*
X84662882Y-103893865D01*
X84766339Y-104144252D01*
X84957741Y-104335987D01*
X85097485Y-104394014D01*
X84958748Y-104451339D01*
X84767013Y-104642741D01*
X84663118Y-104892946D01*
X84662882Y-105163865D01*
X84766339Y-105414252D01*
X84957741Y-105605987D01*
X85097485Y-105664014D01*
X84958748Y-105721339D01*
X84767013Y-105912741D01*
X84663118Y-106162946D01*
X84662882Y-106433865D01*
X84766339Y-106684252D01*
X84957741Y-106875987D01*
X85097485Y-106934014D01*
X84958748Y-106991339D01*
X84767013Y-107182741D01*
X84663118Y-107432946D01*
X84662882Y-107703865D01*
X84766339Y-107954252D01*
X84957741Y-108145987D01*
X85207946Y-108249882D01*
X85478865Y-108250118D01*
X85729252Y-108146661D01*
X85801038Y-108075000D01*
X97205877Y-108075000D01*
X97276741Y-108145987D01*
X97526946Y-108249882D01*
X97797865Y-108250118D01*
X98048252Y-108146661D01*
X98239987Y-107955259D01*
X98343882Y-107705054D01*
X98344118Y-107434135D01*
X98240661Y-107183748D01*
X98049259Y-106992013D01*
X97799054Y-106888118D01*
X97528135Y-106887882D01*
X97277748Y-106991339D01*
X97205962Y-107063000D01*
X85801123Y-107063000D01*
X85730259Y-106992013D01*
X85590515Y-106933986D01*
X85729252Y-106876661D01*
X85801038Y-106805000D01*
X117142408Y-106805000D01*
X116482204Y-107465204D01*
X116372517Y-107629362D01*
X116334000Y-107823000D01*
X116334000Y-110879536D01*
X115890000Y-110879536D01*
X115748810Y-110906103D01*
X115619135Y-110989546D01*
X115532141Y-111116866D01*
X115501536Y-111268000D01*
X115501536Y-113268000D01*
X115528103Y-113409190D01*
X115611546Y-113538865D01*
X115613207Y-113540000D01*
X112166941Y-113540000D01*
X112512966Y-113397025D01*
X112887709Y-113022935D01*
X113090769Y-112533914D01*
X113091231Y-112004409D01*
X112889025Y-111515034D01*
X112514935Y-111140291D01*
X112025914Y-110937231D01*
X111496409Y-110936769D01*
X111007034Y-111138975D01*
X110632291Y-111513065D01*
X110558464Y-111690860D01*
X110558464Y-111268000D01*
X110531897Y-111126810D01*
X110448454Y-110997135D01*
X110331133Y-110916973D01*
X110497865Y-110917118D01*
X110748252Y-110813661D01*
X110820038Y-110742000D01*
X114985877Y-110742000D01*
X115056741Y-110812987D01*
X115306946Y-110916882D01*
X115577865Y-110917118D01*
X115828252Y-110813661D01*
X116019987Y-110622259D01*
X116123882Y-110372054D01*
X116124118Y-110101135D01*
X116020661Y-109850748D01*
X115834580Y-109664344D01*
X116019987Y-109479259D01*
X116123882Y-109229054D01*
X116124118Y-108958135D01*
X116020661Y-108707748D01*
X115834580Y-108521344D01*
X116019987Y-108336259D01*
X116123882Y-108086054D01*
X116124118Y-107815135D01*
X116020661Y-107564748D01*
X115829259Y-107373013D01*
X115579054Y-107269118D01*
X115308135Y-107268882D01*
X115057748Y-107372339D01*
X114985962Y-107444000D01*
X109855000Y-107444000D01*
X109661362Y-107482517D01*
X109539802Y-107563741D01*
X109497204Y-107592204D01*
X108862204Y-108227204D01*
X108752517Y-108391362D01*
X108714000Y-108585000D01*
X108714000Y-108851360D01*
X108654661Y-108707748D01*
X108463259Y-108516013D01*
X108213054Y-108412118D01*
X107942135Y-108411882D01*
X107691748Y-108515339D01*
X107619962Y-108587000D01*
X101854000Y-108587000D01*
X101660362Y-108625517D01*
X101496204Y-108735204D01*
X101242204Y-108989204D01*
X101132517Y-109153362D01*
X101094000Y-109347000D01*
X101094000Y-109782969D01*
X100970259Y-109659013D01*
X100720054Y-109555118D01*
X100449135Y-109554882D01*
X100198748Y-109658339D01*
X100126962Y-109730000D01*
X94234000Y-109730000D01*
X94040362Y-109768517D01*
X93876204Y-109878204D01*
X93622204Y-110132204D01*
X93512517Y-110296362D01*
X93474000Y-110490000D01*
X93474000Y-110879536D01*
X93030000Y-110879536D01*
X92888810Y-110906103D01*
X92759135Y-110989546D01*
X92672141Y-111116866D01*
X92641536Y-111268000D01*
X92641536Y-113268000D01*
X92668103Y-113409190D01*
X92751546Y-113538865D01*
X92753207Y-113540000D01*
X89052941Y-113540000D01*
X89398966Y-113397025D01*
X89773709Y-113022935D01*
X89976769Y-112533914D01*
X89977231Y-112004409D01*
X89775025Y-111515034D01*
X89400935Y-111140291D01*
X88911914Y-110937231D01*
X88382409Y-110936769D01*
X87893034Y-111138975D01*
X87518291Y-111513065D01*
X87444464Y-111690860D01*
X87444464Y-111268000D01*
X87417897Y-111126810D01*
X87334454Y-110997135D01*
X87207134Y-110910141D01*
X87056000Y-110879536D01*
X85156000Y-110879536D01*
X85014810Y-110906103D01*
X84885135Y-110989546D01*
X84798141Y-111116866D01*
X84767536Y-111268000D01*
X84767536Y-113268000D01*
X84794103Y-113409190D01*
X84877546Y-113538865D01*
X85004866Y-113625859D01*
X85156000Y-113656464D01*
X85673146Y-113656464D01*
X85748204Y-113768796D01*
X86383204Y-114403796D01*
X86547362Y-114513483D01*
X86741000Y-114552000D01*
X149479000Y-114552000D01*
X149672638Y-114513483D01*
X149836796Y-114403796D01*
X150217796Y-114022796D01*
X150327483Y-113858638D01*
X150366000Y-113665000D01*
X150366000Y-113499069D01*
X150612966Y-113397025D01*
X150987709Y-113022935D01*
X151190769Y-112533914D01*
X151191231Y-112004409D01*
X150989025Y-111515034D01*
X150614935Y-111140291D01*
X150125914Y-110937231D01*
X149596409Y-110936769D01*
X149107034Y-111138975D01*
X148732291Y-111513065D01*
X148658464Y-111690860D01*
X148658464Y-111268000D01*
X148631897Y-111126810D01*
X148548454Y-110997135D01*
X148421134Y-110910141D01*
X148270000Y-110879536D01*
X146370000Y-110879536D01*
X146228810Y-110906103D01*
X146099135Y-110989546D01*
X146012141Y-111116866D01*
X145981536Y-111268000D01*
X145981536Y-113268000D01*
X146008103Y-113409190D01*
X146091546Y-113538865D01*
X146093207Y-113540000D01*
X142646941Y-113540000D01*
X142992966Y-113397025D01*
X143367709Y-113022935D01*
X143570769Y-112533914D01*
X143571231Y-112004409D01*
X143369025Y-111515034D01*
X142994935Y-111140291D01*
X142505914Y-110937231D01*
X141976409Y-110936769D01*
X141487034Y-111138975D01*
X141112291Y-111513065D01*
X141038464Y-111690860D01*
X141038464Y-111268000D01*
X141011897Y-111126810D01*
X140928454Y-110997135D01*
X140811133Y-110916973D01*
X140977865Y-110917118D01*
X141228252Y-110813661D01*
X141300038Y-110742000D01*
X156762408Y-110742000D01*
X156974000Y-110953592D01*
X156974000Y-111036931D01*
X156727034Y-111138975D01*
X156352291Y-111513065D01*
X156278464Y-111690860D01*
X156278464Y-111268000D01*
X156251897Y-111126810D01*
X156168454Y-110997135D01*
X156041134Y-110910141D01*
X155890000Y-110879536D01*
X153990000Y-110879536D01*
X153848810Y-110906103D01*
X153719135Y-110989546D01*
X153632141Y-111116866D01*
X153601536Y-111268000D01*
X153601536Y-113268000D01*
X153628103Y-113409190D01*
X153711546Y-113538865D01*
X153838866Y-113625859D01*
X153990000Y-113656464D01*
X155890000Y-113656464D01*
X156031190Y-113629897D01*
X156160865Y-113546454D01*
X156247859Y-113419134D01*
X156278464Y-113268000D01*
X156278464Y-112845476D01*
X156350975Y-113020966D01*
X156725065Y-113395709D01*
X157214086Y-113598769D01*
X157743591Y-113599231D01*
X158232966Y-113397025D01*
X158607709Y-113022935D01*
X158810769Y-112533914D01*
X158811231Y-112004409D01*
X158609025Y-111515034D01*
X158234935Y-111140291D01*
X157986000Y-111036924D01*
X157986000Y-110744000D01*
X157947483Y-110550362D01*
X157837796Y-110386204D01*
X157329796Y-109878204D01*
X157165638Y-109768517D01*
X156972000Y-109730000D01*
X141300123Y-109730000D01*
X141234580Y-109664344D01*
X141300038Y-109599000D01*
X164382408Y-109599000D01*
X164594000Y-109810592D01*
X164594000Y-111036931D01*
X164347034Y-111138975D01*
X163972291Y-111513065D01*
X163898464Y-111690860D01*
X163898464Y-111268000D01*
X163871897Y-111126810D01*
X163788454Y-110997135D01*
X163661134Y-110910141D01*
X163510000Y-110879536D01*
X161610000Y-110879536D01*
X161468810Y-110906103D01*
X161339135Y-110989546D01*
X161252141Y-111116866D01*
X161221536Y-111268000D01*
X161221536Y-113268000D01*
X161248103Y-113409190D01*
X161331546Y-113538865D01*
X161458866Y-113625859D01*
X161610000Y-113656464D01*
X163510000Y-113656464D01*
X163651190Y-113629897D01*
X163780865Y-113546454D01*
X163867859Y-113419134D01*
X163898464Y-113268000D01*
X163898464Y-112845476D01*
X163970975Y-113020966D01*
X164345065Y-113395709D01*
X164834086Y-113598769D01*
X165363591Y-113599231D01*
X165852966Y-113397025D01*
X166227709Y-113022935D01*
X166430769Y-112533914D01*
X166431231Y-112004409D01*
X166229025Y-111515034D01*
X165854935Y-111140291D01*
X165606000Y-111036924D01*
X165606000Y-109601000D01*
X165567483Y-109407362D01*
X165457796Y-109243204D01*
X164949796Y-108735204D01*
X164785638Y-108625517D01*
X164592000Y-108587000D01*
X141300123Y-108587000D01*
X141234580Y-108521344D01*
X141300038Y-108456000D01*
X171240408Y-108456000D01*
X172214000Y-109429592D01*
X172214000Y-111036931D01*
X171967034Y-111138975D01*
X171592291Y-111513065D01*
X171518464Y-111690860D01*
X171518464Y-111268000D01*
X171491897Y-111126810D01*
X171408454Y-110997135D01*
X171281134Y-110910141D01*
X171130000Y-110879536D01*
X169230000Y-110879536D01*
X169088810Y-110906103D01*
X168959135Y-110989546D01*
X168872141Y-111116866D01*
X168841536Y-111268000D01*
X168841536Y-113268000D01*
X168868103Y-113409190D01*
X168951546Y-113538865D01*
X169078866Y-113625859D01*
X169230000Y-113656464D01*
X171130000Y-113656464D01*
X171271190Y-113629897D01*
X171400865Y-113546454D01*
X171487859Y-113419134D01*
X171518464Y-113268000D01*
X171518464Y-112845476D01*
X171590975Y-113020966D01*
X171965065Y-113395709D01*
X172454086Y-113598769D01*
X172983591Y-113599231D01*
X173472966Y-113397025D01*
X173847709Y-113022935D01*
X174050769Y-112533914D01*
X174051231Y-112004409D01*
X173849025Y-111515034D01*
X173474935Y-111140291D01*
X173226000Y-111036924D01*
X173226000Y-109220000D01*
X173187483Y-109026362D01*
X173077796Y-108862204D01*
X171807796Y-107592204D01*
X171643638Y-107482517D01*
X171450000Y-107444000D01*
X141300123Y-107444000D01*
X141298080Y-107441954D01*
X141300038Y-107440000D01*
X179241408Y-107440000D01*
X179834000Y-108032592D01*
X179834000Y-111036931D01*
X179587034Y-111138975D01*
X179212291Y-111513065D01*
X179138464Y-111690860D01*
X179138464Y-111268000D01*
X179111897Y-111126810D01*
X179028454Y-110997135D01*
X178901134Y-110910141D01*
X178750000Y-110879536D01*
X176850000Y-110879536D01*
X176708810Y-110906103D01*
X176579135Y-110989546D01*
X176492141Y-111116866D01*
X176461536Y-111268000D01*
X176461536Y-113268000D01*
X176488103Y-113409190D01*
X176571546Y-113538865D01*
X176698866Y-113625859D01*
X176850000Y-113656464D01*
X178750000Y-113656464D01*
X178891190Y-113629897D01*
X179020865Y-113546454D01*
X179107859Y-113419134D01*
X179138464Y-113268000D01*
X179138464Y-112845476D01*
X179210975Y-113020966D01*
X179585065Y-113395709D01*
X180074086Y-113598769D01*
X180603591Y-113599231D01*
X181092966Y-113397025D01*
X181467709Y-113022935D01*
X181670769Y-112533914D01*
X181671231Y-112004409D01*
X181469025Y-111515034D01*
X181094935Y-111140291D01*
X180846000Y-111036924D01*
X180846000Y-107823000D01*
X180807483Y-107629362D01*
X180697796Y-107465204D01*
X179808796Y-106576204D01*
X179644638Y-106466517D01*
X179451000Y-106428000D01*
X141300123Y-106428000D01*
X141298080Y-106425954D01*
X141300038Y-106424000D01*
X185972408Y-106424000D01*
X187454000Y-107905592D01*
X187454000Y-111036931D01*
X187207034Y-111138975D01*
X186832291Y-111513065D01*
X186758464Y-111690860D01*
X186758464Y-111268000D01*
X186731897Y-111126810D01*
X186648454Y-110997135D01*
X186521134Y-110910141D01*
X186370000Y-110879536D01*
X184470000Y-110879536D01*
X184328810Y-110906103D01*
X184199135Y-110989546D01*
X184112141Y-111116866D01*
X184081536Y-111268000D01*
X184081536Y-113268000D01*
X184108103Y-113409190D01*
X184191546Y-113538865D01*
X184318866Y-113625859D01*
X184470000Y-113656464D01*
X186370000Y-113656464D01*
X186511190Y-113629897D01*
X186640865Y-113546454D01*
X186727859Y-113419134D01*
X186758464Y-113268000D01*
X186758464Y-112845476D01*
X186830975Y-113020966D01*
X187205065Y-113395709D01*
X187694086Y-113598769D01*
X188223591Y-113599231D01*
X188712966Y-113397025D01*
X189087709Y-113022935D01*
X189290769Y-112533914D01*
X189291231Y-112004409D01*
X189089025Y-111515034D01*
X188714935Y-111140291D01*
X188466000Y-111036924D01*
X188466000Y-107696000D01*
X188427483Y-107502362D01*
X188317796Y-107338204D01*
X186539796Y-105560204D01*
X186375638Y-105450517D01*
X186182000Y-105412000D01*
X141300123Y-105412000D01*
X141298080Y-105409954D01*
X141300038Y-105408000D01*
X193973408Y-105408000D01*
X195074000Y-106508592D01*
X195074000Y-111036931D01*
X194827034Y-111138975D01*
X194452291Y-111513065D01*
X194378464Y-111690860D01*
X194378464Y-111268000D01*
X194351897Y-111126810D01*
X194268454Y-110997135D01*
X194141134Y-110910141D01*
X193990000Y-110879536D01*
X192090000Y-110879536D01*
X191948810Y-110906103D01*
X191819135Y-110989546D01*
X191732141Y-111116866D01*
X191701536Y-111268000D01*
X191701536Y-113268000D01*
X191728103Y-113409190D01*
X191811546Y-113538865D01*
X191938866Y-113625859D01*
X192090000Y-113656464D01*
X193990000Y-113656464D01*
X194131190Y-113629897D01*
X194260865Y-113546454D01*
X194347859Y-113419134D01*
X194378464Y-113268000D01*
X194378464Y-112845476D01*
X194450975Y-113020966D01*
X194825065Y-113395709D01*
X195314086Y-113598769D01*
X195843591Y-113599231D01*
X196332966Y-113397025D01*
X196707709Y-113022935D01*
X196910769Y-112533914D01*
X196911231Y-112004409D01*
X196709025Y-111515034D01*
X196334935Y-111140291D01*
X196086000Y-111036924D01*
X196086000Y-106299000D01*
X196047483Y-106105362D01*
X195937796Y-105941204D01*
X194540796Y-104544204D01*
X194376638Y-104434517D01*
X194183000Y-104396000D01*
X141300123Y-104396000D01*
X141229259Y-104325013D01*
X140979054Y-104221118D01*
X140708135Y-104220882D01*
X140504620Y-104304972D01*
X140671592Y-104138000D01*
X201212408Y-104138000D01*
X202694000Y-105619592D01*
X202694000Y-111036931D01*
X202447034Y-111138975D01*
X202072291Y-111513065D01*
X201998464Y-111690860D01*
X201998464Y-111268000D01*
X201971897Y-111126810D01*
X201888454Y-110997135D01*
X201761134Y-110910141D01*
X201610000Y-110879536D01*
X199710000Y-110879536D01*
X199568810Y-110906103D01*
X199439135Y-110989546D01*
X199352141Y-111116866D01*
X199321536Y-111268000D01*
X199321536Y-113268000D01*
X199348103Y-113409190D01*
X199431546Y-113538865D01*
X199558866Y-113625859D01*
X199710000Y-113656464D01*
X201610000Y-113656464D01*
X201751190Y-113629897D01*
X201880865Y-113546454D01*
X201967859Y-113419134D01*
X201998464Y-113268000D01*
X201998464Y-112845476D01*
X202070975Y-113020966D01*
X202445065Y-113395709D01*
X202934086Y-113598769D01*
X203463591Y-113599231D01*
X203952966Y-113397025D01*
X204327709Y-113022935D01*
X204530769Y-112533914D01*
X204531231Y-112004409D01*
X204329025Y-111515034D01*
X203954935Y-111140291D01*
X203706000Y-111036924D01*
X203706000Y-105410000D01*
X203667483Y-105216362D01*
X203557796Y-105052204D01*
X201779796Y-103274204D01*
X201615638Y-103164517D01*
X201422000Y-103126000D01*
X140462000Y-103126000D01*
X140268362Y-103164517D01*
X140135938Y-103253000D01*
X140104204Y-103274204D01*
X139342204Y-104036204D01*
X139232517Y-104200362D01*
X139194000Y-104394000D01*
X139194000Y-104448969D01*
X139070259Y-104325013D01*
X138820054Y-104221118D01*
X138549135Y-104220882D01*
X138298748Y-104324339D01*
X138226962Y-104396000D01*
X132715000Y-104396000D01*
X132521362Y-104434517D01*
X132399802Y-104515741D01*
X132357204Y-104544204D01*
X131722204Y-105179204D01*
X131612517Y-105343362D01*
X131574000Y-105537000D01*
X131574000Y-110879536D01*
X131130000Y-110879536D01*
X130988810Y-110906103D01*
X130859135Y-110989546D01*
X130772141Y-111116866D01*
X130741536Y-111268000D01*
X130741536Y-113268000D01*
X130768103Y-113409190D01*
X130851546Y-113538865D01*
X130853207Y-113540000D01*
X127406941Y-113540000D01*
X127752966Y-113397025D01*
X128127709Y-113022935D01*
X128330769Y-112533914D01*
X128331231Y-112004409D01*
X128129025Y-111515034D01*
X127754935Y-111140291D01*
X127265914Y-110937231D01*
X126736409Y-110936769D01*
X126247034Y-111138975D01*
X125872291Y-111513065D01*
X125798464Y-111690860D01*
X125798464Y-111268000D01*
X125771897Y-111126810D01*
X125688454Y-110997135D01*
X125571133Y-110916973D01*
X125737865Y-110917118D01*
X125988252Y-110813661D01*
X126060038Y-110742000D01*
X130352877Y-110742000D01*
X130423741Y-110812987D01*
X130673946Y-110916882D01*
X130944865Y-110917118D01*
X131195252Y-110813661D01*
X131386987Y-110622259D01*
X131490882Y-110372054D01*
X131491118Y-110101135D01*
X131387661Y-109850748D01*
X131201580Y-109664344D01*
X131386987Y-109479259D01*
X131490882Y-109229054D01*
X131491118Y-108958135D01*
X131387661Y-108707748D01*
X131201580Y-108521344D01*
X131386987Y-108336259D01*
X131490882Y-108086054D01*
X131491118Y-107815135D01*
X131387661Y-107564748D01*
X131265080Y-107441954D01*
X131386987Y-107320259D01*
X131490882Y-107070054D01*
X131491118Y-106799135D01*
X131387661Y-106548748D01*
X131265080Y-106425954D01*
X131386987Y-106304259D01*
X131490882Y-106054054D01*
X131491118Y-105783135D01*
X131387661Y-105532748D01*
X131196259Y-105341013D01*
X130946054Y-105237118D01*
X130675135Y-105236882D01*
X130424748Y-105340339D01*
X130352962Y-105412000D01*
X129229340Y-105412000D01*
X129331882Y-105165054D01*
X129332118Y-104894135D01*
X129228661Y-104643748D01*
X129037259Y-104452013D01*
X128787054Y-104348118D01*
X128516135Y-104347882D01*
X128265748Y-104451339D01*
X128193962Y-104523000D01*
X85801123Y-104523000D01*
X85730259Y-104452013D01*
X85590515Y-104393986D01*
X85729252Y-104336661D01*
X85801038Y-104265000D01*
X104952877Y-104265000D01*
X105023741Y-104335987D01*
X105273946Y-104439882D01*
X105544865Y-104440118D01*
X105795252Y-104336661D01*
X105986987Y-104145259D01*
X106090882Y-103895054D01*
X106091118Y-103624135D01*
X105987661Y-103373748D01*
X105796259Y-103182013D01*
X105651733Y-103122000D01*
X112699877Y-103122000D01*
X112770741Y-103192987D01*
X113020946Y-103296882D01*
X113291865Y-103297118D01*
X113542252Y-103193661D01*
X113733987Y-103002259D01*
X113837882Y-102752054D01*
X113838118Y-102481135D01*
X113734661Y-102230748D01*
X113543259Y-102039013D01*
X113293054Y-101935118D01*
X113022135Y-101934882D01*
X112771748Y-102038339D01*
X112699962Y-102110000D01*
X85801123Y-102110000D01*
X85730259Y-102039013D01*
X85480054Y-101935118D01*
X85209135Y-101934882D01*
X84958748Y-102038339D01*
X84767013Y-102229741D01*
X84663118Y-102479946D01*
X84662882Y-102750865D01*
X46042003Y-102750865D01*
X45948617Y-102281381D01*
X45622384Y-101793140D01*
X45194580Y-101507290D01*
X45622384Y-101221440D01*
X45948617Y-100733199D01*
X46063174Y-100157280D01*
X45948617Y-99581361D01*
X45622384Y-99093120D01*
X45134143Y-98766887D01*
X44558224Y-98652330D01*
X44499256Y-98652330D01*
X43923337Y-98766887D01*
X43435096Y-99093120D01*
X43108863Y-99581361D01*
X42994306Y-100157280D01*
X40657866Y-100157280D01*
X40657976Y-100032496D01*
X40486261Y-99616913D01*
X40168580Y-99298677D01*
X39753297Y-99126237D01*
X39303636Y-99125844D01*
X38888053Y-99297559D01*
X38569817Y-99615240D01*
X38397377Y-100030523D01*
X38396984Y-100480184D01*
X33476000Y-100480184D01*
X33476000Y-99612912D01*
X33565550Y-99162712D01*
X33795127Y-98819127D01*
X34138712Y-98589551D01*
X34588912Y-98500000D01*
X205187088Y-98500000D01*
X205637288Y-98589550D01*
X205637288Y-98589550D01*
G37*
X205637288Y-98589550D02*
X205980873Y-98819127D01*
X206210449Y-99162712D01*
X206300000Y-99612912D01*
X206300000Y-124923088D01*
X206210449Y-125373288D01*
X205980873Y-125716873D01*
X205637288Y-125946450D01*
X205187088Y-126036000D01*
X34588912Y-126036000D01*
X34138712Y-125946449D01*
X33795127Y-125716873D01*
X33565550Y-125373288D01*
X33476000Y-124923088D01*
X33476000Y-121312940D01*
X41955876Y-121312940D01*
X41955876Y-124813060D01*
X41982443Y-124954250D01*
X42065886Y-125083925D01*
X42193206Y-125170919D01*
X42344340Y-125201524D01*
X45844460Y-125201524D01*
X45985650Y-125174957D01*
X46115325Y-125091514D01*
X46202319Y-124964194D01*
X46232924Y-124813060D01*
X46232924Y-121312940D01*
X46206357Y-121171750D01*
X46122914Y-121042075D01*
X45995594Y-120955081D01*
X45844460Y-120924476D01*
X42344340Y-120924476D01*
X42203150Y-120951043D01*
X42073475Y-121034486D01*
X41986481Y-121161806D01*
X41955876Y-121312940D01*
X33476000Y-121312940D01*
X33476000Y-116613940D01*
X38956136Y-116613940D01*
X38956136Y-120114060D01*
X38982703Y-120255250D01*
X39066146Y-120384925D01*
X39193466Y-120471919D01*
X39344600Y-120502524D01*
X42844720Y-120502524D01*
X42985910Y-120475957D01*
X43115585Y-120392514D01*
X43202579Y-120265194D01*
X43233184Y-120114060D01*
X43233184Y-118649750D01*
X44709080Y-118649750D01*
X44709080Y-120240370D01*
X44805753Y-120473759D01*
X44984382Y-120652387D01*
X45217771Y-120749060D01*
X46808390Y-120749060D01*
X46967140Y-120590310D01*
X46967140Y-118491000D01*
X47221140Y-118491000D01*
X47221140Y-120590310D01*
X47379890Y-120749060D01*
X48970509Y-120749060D01*
X49203898Y-120652387D01*
X49382527Y-120473759D01*
X49479200Y-120240370D01*
X49479200Y-118649750D01*
X49320450Y-118491000D01*
X47221140Y-118491000D01*
X46967140Y-118491000D01*
X44867830Y-118491000D01*
X44709080Y-118649750D01*
X43233184Y-118649750D01*
X43233184Y-116613940D01*
X43209417Y-116487630D01*
X44709080Y-116487630D01*
X44709080Y-118078250D01*
X44867830Y-118237000D01*
X46967140Y-118237000D01*
X46967140Y-116137690D01*
X47221140Y-116137690D01*
X47221140Y-118237000D01*
X49320450Y-118237000D01*
X49479200Y-118078250D01*
X49479200Y-116487630D01*
X49382527Y-116254241D01*
X49203898Y-116075613D01*
X48970509Y-115978940D01*
X47379890Y-115978940D01*
X47221140Y-116137690D01*
X46967140Y-116137690D01*
X46808390Y-115978940D01*
X45217771Y-115978940D01*
X44984382Y-116075613D01*
X44805753Y-116254241D01*
X44709080Y-116487630D01*
X43209417Y-116487630D01*
X43206617Y-116472750D01*
X43123174Y-116343075D01*
X42995854Y-116256081D01*
X42844720Y-116225476D01*
X39344600Y-116225476D01*
X39203410Y-116252043D01*
X39073735Y-116335486D01*
X38986741Y-116462806D01*
X38956136Y-116613940D01*
X33476000Y-116613940D01*
X33476000Y-110477624D01*
X38396984Y-110477624D01*
X38568699Y-110893207D01*
X38886380Y-111211443D01*
X39301663Y-111383883D01*
X39751324Y-111384276D01*
X40166907Y-111212561D01*
X40485143Y-110894880D01*
X40657583Y-110479597D01*
X40657976Y-110029936D01*
X40486261Y-109614353D01*
X40168580Y-109296117D01*
X39753297Y-109123677D01*
X39303636Y-109123284D01*
X38888053Y-109294999D01*
X38569817Y-109612680D01*
X38397377Y-110027963D01*
X38396984Y-110477624D01*
X33476000Y-110477624D01*
X33476000Y-105255060D01*
X37844135Y-105255060D01*
X37969810Y-105886870D01*
X38327702Y-106422493D01*
X38863325Y-106780385D01*
X39495135Y-106906060D01*
X39559825Y-106906060D01*
X40191635Y-106780385D01*
X40727258Y-106422493D01*
X41085150Y-105886870D01*
X41210825Y-105255060D01*
X41085150Y-104623250D01*
X40727258Y-104087627D01*
X40191635Y-103729735D01*
X39559825Y-103604060D01*
X39495135Y-103604060D01*
X38863325Y-103729735D01*
X38327702Y-104087627D01*
X37969810Y-104623250D01*
X37844135Y-105255060D01*
X33476000Y-105255060D01*
X33476000Y-100480184D01*
X38396984Y-100480184D01*
X38568699Y-100895767D01*
X38886380Y-101214003D01*
X39301663Y-101386443D01*
X39751324Y-101386836D01*
X40166907Y-101215121D01*
X40485143Y-100897440D01*
X40657583Y-100482157D01*
X40657866Y-100157280D01*
X42994306Y-100157280D01*
X43108863Y-100733199D01*
X43435096Y-101221440D01*
X43862900Y-101507290D01*
X43435096Y-101793140D01*
X43108863Y-102281381D01*
X42994306Y-102857300D01*
X43108863Y-103433219D01*
X43435096Y-103921460D01*
X43923337Y-104247693D01*
X43979745Y-104258913D01*
X43889313Y-104296279D01*
X43571077Y-104613960D01*
X43398637Y-105029243D01*
X43398244Y-105478904D01*
X43569959Y-105894487D01*
X43887640Y-106212723D01*
X43984269Y-106252847D01*
X43923337Y-106264967D01*
X43435096Y-106591200D01*
X43108863Y-107079441D01*
X42994306Y-107655360D01*
X43108863Y-108231279D01*
X43435096Y-108719520D01*
X43862900Y-109005370D01*
X43435096Y-109291220D01*
X43108863Y-109779461D01*
X42994306Y-110355380D01*
X43108863Y-110931299D01*
X43435096Y-111419540D01*
X43923337Y-111745773D01*
X44499256Y-111860330D01*
X44558224Y-111860330D01*
X45134143Y-111745773D01*
X45622384Y-111419540D01*
X45948617Y-110931299D01*
X46063174Y-110355380D01*
X45965208Y-109862865D01*
X57992882Y-109862865D01*
X58096339Y-110113252D01*
X58168000Y-110185038D01*
X58168000Y-111048877D01*
X58097013Y-111119741D01*
X57993118Y-111369946D01*
X57992882Y-111640865D01*
X58096339Y-111891252D01*
X58287741Y-112082987D01*
X58537946Y-112186882D01*
X58808865Y-112187118D01*
X59059252Y-112083661D01*
X59250987Y-111892259D01*
X59354882Y-111642054D01*
X59355118Y-111371135D01*
X59251661Y-111120748D01*
X59180000Y-111048962D01*
X59180000Y-110243865D01*
X86440882Y-110243865D01*
X86544339Y-110494252D01*
X86735741Y-110685987D01*
X86985946Y-110789882D01*
X87256865Y-110790118D01*
X87507252Y-110686661D01*
X87579038Y-110615000D01*
X89585877Y-110615000D01*
X89656741Y-110685987D01*
X89906946Y-110789882D01*
X90177865Y-110790118D01*
X90428252Y-110686661D01*
X90619987Y-110495259D01*
X90723882Y-110245054D01*
X90724118Y-109974135D01*
X90620661Y-109723748D01*
X90429259Y-109532013D01*
X90179054Y-109428118D01*
X89908135Y-109427882D01*
X89657748Y-109531339D01*
X89585962Y-109603000D01*
X87579123Y-109603000D01*
X87508259Y-109532013D01*
X87258054Y-109428118D01*
X86987135Y-109427882D01*
X86736748Y-109531339D01*
X86545013Y-109722741D01*
X86441118Y-109972946D01*
X86440882Y-110243865D01*
X59180000Y-110243865D01*
X59180000Y-110185123D01*
X59250987Y-110114259D01*
X59354882Y-109864054D01*
X59355118Y-109593135D01*
X59251661Y-109342748D01*
X59060259Y-109151013D01*
X58810054Y-109047118D01*
X58539135Y-109046882D01*
X58288748Y-109150339D01*
X58097013Y-109341741D01*
X57993118Y-109591946D01*
X57992882Y-109862865D01*
X45965208Y-109862865D01*
X45948617Y-109779461D01*
X45622384Y-109291220D01*
X45194580Y-109005370D01*
X45622384Y-108719520D01*
X45948617Y-108231279D01*
X46063174Y-107655360D01*
X45948617Y-107079441D01*
X45622384Y-106591200D01*
X45134143Y-106264967D01*
X45073585Y-106252921D01*
X45168167Y-106213841D01*
X45486403Y-105896160D01*
X45658843Y-105480877D01*
X45659236Y-105031216D01*
X45487521Y-104615633D01*
X45169840Y-104297397D01*
X45077347Y-104258990D01*
X45134143Y-104247693D01*
X45622384Y-103921460D01*
X45948617Y-103433219D01*
X46063174Y-102857300D01*
X46042003Y-102750865D01*
X84662882Y-102750865D01*
X84766339Y-103001252D01*
X84952420Y-103187656D01*
X84767013Y-103372741D01*
X84663118Y-103622946D01*
X84662882Y-103893865D01*
X84766339Y-104144252D01*
X84957741Y-104335987D01*
X85097485Y-104394014D01*
X84958748Y-104451339D01*
X84767013Y-104642741D01*
X84663118Y-104892946D01*
X84662882Y-105163865D01*
X84766339Y-105414252D01*
X84957741Y-105605987D01*
X85097485Y-105664014D01*
X84958748Y-105721339D01*
X84767013Y-105912741D01*
X84663118Y-106162946D01*
X84662882Y-106433865D01*
X84766339Y-106684252D01*
X84957741Y-106875987D01*
X85097485Y-106934014D01*
X84958748Y-106991339D01*
X84767013Y-107182741D01*
X84663118Y-107432946D01*
X84662882Y-107703865D01*
X84766339Y-107954252D01*
X84957741Y-108145987D01*
X85207946Y-108249882D01*
X85478865Y-108250118D01*
X85729252Y-108146661D01*
X85801038Y-108075000D01*
X97205877Y-108075000D01*
X97276741Y-108145987D01*
X97526946Y-108249882D01*
X97797865Y-108250118D01*
X98048252Y-108146661D01*
X98239987Y-107955259D01*
X98343882Y-107705054D01*
X98344118Y-107434135D01*
X98240661Y-107183748D01*
X98049259Y-106992013D01*
X97799054Y-106888118D01*
X97528135Y-106887882D01*
X97277748Y-106991339D01*
X97205962Y-107063000D01*
X85801123Y-107063000D01*
X85730259Y-106992013D01*
X85590515Y-106933986D01*
X85729252Y-106876661D01*
X85801038Y-106805000D01*
X117142408Y-106805000D01*
X116482204Y-107465204D01*
X116372517Y-107629362D01*
X116334000Y-107823000D01*
X116334000Y-110879536D01*
X115890000Y-110879536D01*
X115748810Y-110906103D01*
X115619135Y-110989546D01*
X115532141Y-111116866D01*
X115501536Y-111268000D01*
X115501536Y-113268000D01*
X115528103Y-113409190D01*
X115611546Y-113538865D01*
X115613207Y-113540000D01*
X112166941Y-113540000D01*
X112512966Y-113397025D01*
X112887709Y-113022935D01*
X113090769Y-112533914D01*
X113091231Y-112004409D01*
X112889025Y-111515034D01*
X112514935Y-111140291D01*
X112025914Y-110937231D01*
X111496409Y-110936769D01*
X111007034Y-111138975D01*
X110632291Y-111513065D01*
X110558464Y-111690860D01*
X110558464Y-111268000D01*
X110531897Y-111126810D01*
X110448454Y-110997135D01*
X110331133Y-110916973D01*
X110497865Y-110917118D01*
X110748252Y-110813661D01*
X110820038Y-110742000D01*
X114985877Y-110742000D01*
X115056741Y-110812987D01*
X115306946Y-110916882D01*
X115577865Y-110917118D01*
X115828252Y-110813661D01*
X116019987Y-110622259D01*
X116123882Y-110372054D01*
X116124118Y-110101135D01*
X116020661Y-109850748D01*
X115834580Y-109664344D01*
X116019987Y-109479259D01*
X116123882Y-109229054D01*
X116124118Y-108958135D01*
X116020661Y-108707748D01*
X115834580Y-108521344D01*
X116019987Y-108336259D01*
X116123882Y-108086054D01*
X116124118Y-107815135D01*
X116020661Y-107564748D01*
X115829259Y-107373013D01*
X115579054Y-107269118D01*
X115308135Y-107268882D01*
X115057748Y-107372339D01*
X114985962Y-107444000D01*
X109855000Y-107444000D01*
X109661362Y-107482517D01*
X109539802Y-107563741D01*
X109497204Y-107592204D01*
X108862204Y-108227204D01*
X108752517Y-108391362D01*
X108714000Y-108585000D01*
X108714000Y-108851360D01*
X108654661Y-108707748D01*
X108463259Y-108516013D01*
X108213054Y-108412118D01*
X107942135Y-108411882D01*
X107691748Y-108515339D01*
X107619962Y-108587000D01*
X101854000Y-108587000D01*
X101660362Y-108625517D01*
X101496204Y-108735204D01*
X101242204Y-108989204D01*
X101132517Y-109153362D01*
X101094000Y-109347000D01*
X101094000Y-109782969D01*
X100970259Y-109659013D01*
X100720054Y-109555118D01*
X100449135Y-109554882D01*
X100198748Y-109658339D01*
X100126962Y-109730000D01*
X94234000Y-109730000D01*
X94040362Y-109768517D01*
X93876204Y-109878204D01*
X93622204Y-110132204D01*
X93512517Y-110296362D01*
X93474000Y-110490000D01*
X93474000Y-110879536D01*
X93030000Y-110879536D01*
X92888810Y-110906103D01*
X92759135Y-110989546D01*
X92672141Y-111116866D01*
X92641536Y-111268000D01*
X92641536Y-113268000D01*
X92668103Y-113409190D01*
X92751546Y-113538865D01*
X92753207Y-113540000D01*
X89052941Y-113540000D01*
X89398966Y-113397025D01*
X89773709Y-113022935D01*
X89976769Y-112533914D01*
X89977231Y-112004409D01*
X89775025Y-111515034D01*
X89400935Y-111140291D01*
X88911914Y-110937231D01*
X88382409Y-110936769D01*
X87893034Y-111138975D01*
X87518291Y-111513065D01*
X87444464Y-111690860D01*
X87444464Y-111268000D01*
X87417897Y-111126810D01*
X87334454Y-110997135D01*
X87207134Y-110910141D01*
X87056000Y-110879536D01*
X85156000Y-110879536D01*
X85014810Y-110906103D01*
X84885135Y-110989546D01*
X84798141Y-111116866D01*
X84767536Y-111268000D01*
X84767536Y-113268000D01*
X84794103Y-113409190D01*
X84877546Y-113538865D01*
X85004866Y-113625859D01*
X85156000Y-113656464D01*
X85673146Y-113656464D01*
X85748204Y-113768796D01*
X86383204Y-114403796D01*
X86547362Y-114513483D01*
X86741000Y-114552000D01*
X149479000Y-114552000D01*
X149672638Y-114513483D01*
X149836796Y-114403796D01*
X150217796Y-114022796D01*
X150327483Y-113858638D01*
X150366000Y-113665000D01*
X150366000Y-113499069D01*
X150612966Y-113397025D01*
X150987709Y-113022935D01*
X151190769Y-112533914D01*
X151191231Y-112004409D01*
X150989025Y-111515034D01*
X150614935Y-111140291D01*
X150125914Y-110937231D01*
X149596409Y-110936769D01*
X149107034Y-111138975D01*
X148732291Y-111513065D01*
X148658464Y-111690860D01*
X148658464Y-111268000D01*
X148631897Y-111126810D01*
X148548454Y-110997135D01*
X148421134Y-110910141D01*
X148270000Y-110879536D01*
X146370000Y-110879536D01*
X146228810Y-110906103D01*
X146099135Y-110989546D01*
X146012141Y-111116866D01*
X145981536Y-111268000D01*
X145981536Y-113268000D01*
X146008103Y-113409190D01*
X146091546Y-113538865D01*
X146093207Y-113540000D01*
X142646941Y-113540000D01*
X142992966Y-113397025D01*
X143367709Y-113022935D01*
X143570769Y-112533914D01*
X143571231Y-112004409D01*
X143369025Y-111515034D01*
X142994935Y-111140291D01*
X142505914Y-110937231D01*
X141976409Y-110936769D01*
X141487034Y-111138975D01*
X141112291Y-111513065D01*
X141038464Y-111690860D01*
X141038464Y-111268000D01*
X141011897Y-111126810D01*
X140928454Y-110997135D01*
X140811133Y-110916973D01*
X140977865Y-110917118D01*
X141228252Y-110813661D01*
X141300038Y-110742000D01*
X156762408Y-110742000D01*
X156974000Y-110953592D01*
X156974000Y-111036931D01*
X156727034Y-111138975D01*
X156352291Y-111513065D01*
X156278464Y-111690860D01*
X156278464Y-111268000D01*
X156251897Y-111126810D01*
X156168454Y-110997135D01*
X156041134Y-110910141D01*
X155890000Y-110879536D01*
X153990000Y-110879536D01*
X153848810Y-110906103D01*
X153719135Y-110989546D01*
X153632141Y-111116866D01*
X153601536Y-111268000D01*
X153601536Y-113268000D01*
X153628103Y-113409190D01*
X153711546Y-113538865D01*
X153838866Y-113625859D01*
X153990000Y-113656464D01*
X155890000Y-113656464D01*
X156031190Y-113629897D01*
X156160865Y-113546454D01*
X156247859Y-113419134D01*
X156278464Y-113268000D01*
X156278464Y-112845476D01*
X156350975Y-113020966D01*
X156725065Y-113395709D01*
X157214086Y-113598769D01*
X157743591Y-113599231D01*
X158232966Y-113397025D01*
X158607709Y-113022935D01*
X158810769Y-112533914D01*
X158811231Y-112004409D01*
X158609025Y-111515034D01*
X158234935Y-111140291D01*
X157986000Y-111036924D01*
X157986000Y-110744000D01*
X157947483Y-110550362D01*
X157837796Y-110386204D01*
X157329796Y-109878204D01*
X157165638Y-109768517D01*
X156972000Y-109730000D01*
X141300123Y-109730000D01*
X141234580Y-109664344D01*
X141300038Y-109599000D01*
X164382408Y-109599000D01*
X164594000Y-109810592D01*
X164594000Y-111036931D01*
X164347034Y-111138975D01*
X163972291Y-111513065D01*
X163898464Y-111690860D01*
X163898464Y-111268000D01*
X163871897Y-111126810D01*
X163788454Y-110997135D01*
X163661134Y-110910141D01*
X163510000Y-110879536D01*
X161610000Y-110879536D01*
X161468810Y-110906103D01*
X161339135Y-110989546D01*
X161252141Y-111116866D01*
X161221536Y-111268000D01*
X161221536Y-113268000D01*
X161248103Y-113409190D01*
X161331546Y-113538865D01*
X161458866Y-113625859D01*
X161610000Y-113656464D01*
X163510000Y-113656464D01*
X163651190Y-113629897D01*
X163780865Y-113546454D01*
X163867859Y-113419134D01*
X163898464Y-113268000D01*
X163898464Y-112845476D01*
X163970975Y-113020966D01*
X164345065Y-113395709D01*
X164834086Y-113598769D01*
X165363591Y-113599231D01*
X165852966Y-113397025D01*
X166227709Y-113022935D01*
X166430769Y-112533914D01*
X166431231Y-112004409D01*
X166229025Y-111515034D01*
X165854935Y-111140291D01*
X165606000Y-111036924D01*
X165606000Y-109601000D01*
X165567483Y-109407362D01*
X165457796Y-109243204D01*
X164949796Y-108735204D01*
X164785638Y-108625517D01*
X164592000Y-108587000D01*
X141300123Y-108587000D01*
X141234580Y-108521344D01*
X141300038Y-108456000D01*
X171240408Y-108456000D01*
X172214000Y-109429592D01*
X172214000Y-111036931D01*
X171967034Y-111138975D01*
X171592291Y-111513065D01*
X171518464Y-111690860D01*
X171518464Y-111268000D01*
X171491897Y-111126810D01*
X171408454Y-110997135D01*
X171281134Y-110910141D01*
X171130000Y-110879536D01*
X169230000Y-110879536D01*
X169088810Y-110906103D01*
X168959135Y-110989546D01*
X168872141Y-111116866D01*
X168841536Y-111268000D01*
X168841536Y-113268000D01*
X168868103Y-113409190D01*
X168951546Y-113538865D01*
X169078866Y-113625859D01*
X169230000Y-113656464D01*
X171130000Y-113656464D01*
X171271190Y-113629897D01*
X171400865Y-113546454D01*
X171487859Y-113419134D01*
X171518464Y-113268000D01*
X171518464Y-112845476D01*
X171590975Y-113020966D01*
X171965065Y-113395709D01*
X172454086Y-113598769D01*
X172983591Y-113599231D01*
X173472966Y-113397025D01*
X173847709Y-113022935D01*
X174050769Y-112533914D01*
X174051231Y-112004409D01*
X173849025Y-111515034D01*
X173474935Y-111140291D01*
X173226000Y-111036924D01*
X173226000Y-109220000D01*
X173187483Y-109026362D01*
X173077796Y-108862204D01*
X171807796Y-107592204D01*
X171643638Y-107482517D01*
X171450000Y-107444000D01*
X141300123Y-107444000D01*
X141298080Y-107441954D01*
X141300038Y-107440000D01*
X179241408Y-107440000D01*
X179834000Y-108032592D01*
X179834000Y-111036931D01*
X179587034Y-111138975D01*
X179212291Y-111513065D01*
X179138464Y-111690860D01*
X179138464Y-111268000D01*
X179111897Y-111126810D01*
X179028454Y-110997135D01*
X178901134Y-110910141D01*
X178750000Y-110879536D01*
X176850000Y-110879536D01*
X176708810Y-110906103D01*
X176579135Y-110989546D01*
X176492141Y-111116866D01*
X176461536Y-111268000D01*
X176461536Y-113268000D01*
X176488103Y-113409190D01*
X176571546Y-113538865D01*
X176698866Y-113625859D01*
X176850000Y-113656464D01*
X178750000Y-113656464D01*
X178891190Y-113629897D01*
X179020865Y-113546454D01*
X179107859Y-113419134D01*
X179138464Y-113268000D01*
X179138464Y-112845476D01*
X179210975Y-113020966D01*
X179585065Y-113395709D01*
X180074086Y-113598769D01*
X180603591Y-113599231D01*
X181092966Y-113397025D01*
X181467709Y-113022935D01*
X181670769Y-112533914D01*
X181671231Y-112004409D01*
X181469025Y-111515034D01*
X181094935Y-111140291D01*
X180846000Y-111036924D01*
X180846000Y-107823000D01*
X180807483Y-107629362D01*
X180697796Y-107465204D01*
X179808796Y-106576204D01*
X179644638Y-106466517D01*
X179451000Y-106428000D01*
X141300123Y-106428000D01*
X141298080Y-106425954D01*
X141300038Y-106424000D01*
X185972408Y-106424000D01*
X187454000Y-107905592D01*
X187454000Y-111036931D01*
X187207034Y-111138975D01*
X186832291Y-111513065D01*
X186758464Y-111690860D01*
X186758464Y-111268000D01*
X186731897Y-111126810D01*
X186648454Y-110997135D01*
X186521134Y-110910141D01*
X186370000Y-110879536D01*
X184470000Y-110879536D01*
X184328810Y-110906103D01*
X184199135Y-110989546D01*
X184112141Y-111116866D01*
X184081536Y-111268000D01*
X184081536Y-113268000D01*
X184108103Y-113409190D01*
X184191546Y-113538865D01*
X184318866Y-113625859D01*
X184470000Y-113656464D01*
X186370000Y-113656464D01*
X186511190Y-113629897D01*
X186640865Y-113546454D01*
X186727859Y-113419134D01*
X186758464Y-113268000D01*
X186758464Y-112845476D01*
X186830975Y-113020966D01*
X187205065Y-113395709D01*
X187694086Y-113598769D01*
X188223591Y-113599231D01*
X188712966Y-113397025D01*
X189087709Y-113022935D01*
X189290769Y-112533914D01*
X189291231Y-112004409D01*
X189089025Y-111515034D01*
X188714935Y-111140291D01*
X188466000Y-111036924D01*
X188466000Y-107696000D01*
X188427483Y-107502362D01*
X188317796Y-107338204D01*
X186539796Y-105560204D01*
X186375638Y-105450517D01*
X186182000Y-105412000D01*
X141300123Y-105412000D01*
X141298080Y-105409954D01*
X141300038Y-105408000D01*
X193973408Y-105408000D01*
X195074000Y-106508592D01*
X195074000Y-111036931D01*
X194827034Y-111138975D01*
X194452291Y-111513065D01*
X194378464Y-111690860D01*
X194378464Y-111268000D01*
X194351897Y-111126810D01*
X194268454Y-110997135D01*
X194141134Y-110910141D01*
X193990000Y-110879536D01*
X192090000Y-110879536D01*
X191948810Y-110906103D01*
X191819135Y-110989546D01*
X191732141Y-111116866D01*
X191701536Y-111268000D01*
X191701536Y-113268000D01*
X191728103Y-113409190D01*
X191811546Y-113538865D01*
X191938866Y-113625859D01*
X192090000Y-113656464D01*
X193990000Y-113656464D01*
X194131190Y-113629897D01*
X194260865Y-113546454D01*
X194347859Y-113419134D01*
X194378464Y-113268000D01*
X194378464Y-112845476D01*
X194450975Y-113020966D01*
X194825065Y-113395709D01*
X195314086Y-113598769D01*
X195843591Y-113599231D01*
X196332966Y-113397025D01*
X196707709Y-113022935D01*
X196910769Y-112533914D01*
X196911231Y-112004409D01*
X196709025Y-111515034D01*
X196334935Y-111140291D01*
X196086000Y-111036924D01*
X196086000Y-106299000D01*
X196047483Y-106105362D01*
X195937796Y-105941204D01*
X194540796Y-104544204D01*
X194376638Y-104434517D01*
X194183000Y-104396000D01*
X141300123Y-104396000D01*
X141229259Y-104325013D01*
X140979054Y-104221118D01*
X140708135Y-104220882D01*
X140504620Y-104304972D01*
X140671592Y-104138000D01*
X201212408Y-104138000D01*
X202694000Y-105619592D01*
X202694000Y-111036931D01*
X202447034Y-111138975D01*
X202072291Y-111513065D01*
X201998464Y-111690860D01*
X201998464Y-111268000D01*
X201971897Y-111126810D01*
X201888454Y-110997135D01*
X201761134Y-110910141D01*
X201610000Y-110879536D01*
X199710000Y-110879536D01*
X199568810Y-110906103D01*
X199439135Y-110989546D01*
X199352141Y-111116866D01*
X199321536Y-111268000D01*
X199321536Y-113268000D01*
X199348103Y-113409190D01*
X199431546Y-113538865D01*
X199558866Y-113625859D01*
X199710000Y-113656464D01*
X201610000Y-113656464D01*
X201751190Y-113629897D01*
X201880865Y-113546454D01*
X201967859Y-113419134D01*
X201998464Y-113268000D01*
X201998464Y-112845476D01*
X202070975Y-113020966D01*
X202445065Y-113395709D01*
X202934086Y-113598769D01*
X203463591Y-113599231D01*
X203952966Y-113397025D01*
X204327709Y-113022935D01*
X204530769Y-112533914D01*
X204531231Y-112004409D01*
X204329025Y-111515034D01*
X203954935Y-111140291D01*
X203706000Y-111036924D01*
X203706000Y-105410000D01*
X203667483Y-105216362D01*
X203557796Y-105052204D01*
X201779796Y-103274204D01*
X201615638Y-103164517D01*
X201422000Y-103126000D01*
X140462000Y-103126000D01*
X140268362Y-103164517D01*
X140135938Y-103253000D01*
X140104204Y-103274204D01*
X139342204Y-104036204D01*
X139232517Y-104200362D01*
X139194000Y-104394000D01*
X139194000Y-104448969D01*
X139070259Y-104325013D01*
X138820054Y-104221118D01*
X138549135Y-104220882D01*
X138298748Y-104324339D01*
X138226962Y-104396000D01*
X132715000Y-104396000D01*
X132521362Y-104434517D01*
X132399802Y-104515741D01*
X132357204Y-104544204D01*
X131722204Y-105179204D01*
X131612517Y-105343362D01*
X131574000Y-105537000D01*
X131574000Y-110879536D01*
X131130000Y-110879536D01*
X130988810Y-110906103D01*
X130859135Y-110989546D01*
X130772141Y-111116866D01*
X130741536Y-111268000D01*
X130741536Y-113268000D01*
X130768103Y-113409190D01*
X130851546Y-113538865D01*
X130853207Y-113540000D01*
X127406941Y-113540000D01*
X127752966Y-113397025D01*
X128127709Y-113022935D01*
X128330769Y-112533914D01*
X128331231Y-112004409D01*
X128129025Y-111515034D01*
X127754935Y-111140291D01*
X127265914Y-110937231D01*
X126736409Y-110936769D01*
X126247034Y-111138975D01*
X125872291Y-111513065D01*
X125798464Y-111690860D01*
X125798464Y-111268000D01*
X125771897Y-111126810D01*
X125688454Y-110997135D01*
X125571133Y-110916973D01*
X125737865Y-110917118D01*
X125988252Y-110813661D01*
X126060038Y-110742000D01*
X130352877Y-110742000D01*
X130423741Y-110812987D01*
X130673946Y-110916882D01*
X130944865Y-110917118D01*
X131195252Y-110813661D01*
X131386987Y-110622259D01*
X131490882Y-110372054D01*
X131491118Y-110101135D01*
X131387661Y-109850748D01*
X131201580Y-109664344D01*
X131386987Y-109479259D01*
X131490882Y-109229054D01*
X131491118Y-108958135D01*
X131387661Y-108707748D01*
X131201580Y-108521344D01*
X131386987Y-108336259D01*
X131490882Y-108086054D01*
X131491118Y-107815135D01*
X131387661Y-107564748D01*
X131265080Y-107441954D01*
X131386987Y-107320259D01*
X131490882Y-107070054D01*
X131491118Y-106799135D01*
X131387661Y-106548748D01*
X131265080Y-106425954D01*
X131386987Y-106304259D01*
X131490882Y-106054054D01*
X131491118Y-105783135D01*
X131387661Y-105532748D01*
X131196259Y-105341013D01*
X130946054Y-105237118D01*
X130675135Y-105236882D01*
X130424748Y-105340339D01*
X130352962Y-105412000D01*
X129229340Y-105412000D01*
X129331882Y-105165054D01*
X129332118Y-104894135D01*
X129228661Y-104643748D01*
X129037259Y-104452013D01*
X128787054Y-104348118D01*
X128516135Y-104347882D01*
X128265748Y-104451339D01*
X128193962Y-104523000D01*
X85801123Y-104523000D01*
X85730259Y-104452013D01*
X85590515Y-104393986D01*
X85729252Y-104336661D01*
X85801038Y-104265000D01*
X104952877Y-104265000D01*
X105023741Y-104335987D01*
X105273946Y-104439882D01*
X105544865Y-104440118D01*
X105795252Y-104336661D01*
X105986987Y-104145259D01*
X106090882Y-103895054D01*
X106091118Y-103624135D01*
X105987661Y-103373748D01*
X105796259Y-103182013D01*
X105651733Y-103122000D01*
X112699877Y-103122000D01*
X112770741Y-103192987D01*
X113020946Y-103296882D01*
X113291865Y-103297118D01*
X113542252Y-103193661D01*
X113733987Y-103002259D01*
X113837882Y-102752054D01*
X113838118Y-102481135D01*
X113734661Y-102230748D01*
X113543259Y-102039013D01*
X113293054Y-101935118D01*
X113022135Y-101934882D01*
X112771748Y-102038339D01*
X112699962Y-102110000D01*
X85801123Y-102110000D01*
X85730259Y-102039013D01*
X85480054Y-101935118D01*
X85209135Y-101934882D01*
X84958748Y-102038339D01*
X84767013Y-102229741D01*
X84663118Y-102479946D01*
X84662882Y-102750865D01*
X46042003Y-102750865D01*
X45948617Y-102281381D01*
X45622384Y-101793140D01*
X45194580Y-101507290D01*
X45622384Y-101221440D01*
X45948617Y-100733199D01*
X46063174Y-100157280D01*
X45948617Y-99581361D01*
X45622384Y-99093120D01*
X45134143Y-98766887D01*
X44558224Y-98652330D01*
X44499256Y-98652330D01*
X43923337Y-98766887D01*
X43435096Y-99093120D01*
X43108863Y-99581361D01*
X42994306Y-100157280D01*
X40657866Y-100157280D01*
X40657976Y-100032496D01*
X40486261Y-99616913D01*
X40168580Y-99298677D01*
X39753297Y-99126237D01*
X39303636Y-99125844D01*
X38888053Y-99297559D01*
X38569817Y-99615240D01*
X38397377Y-100030523D01*
X38396984Y-100480184D01*
X33476000Y-100480184D01*
X33476000Y-99612912D01*
X33565550Y-99162712D01*
X33795127Y-98819127D01*
X34138712Y-98589551D01*
X34588912Y-98500000D01*
X205187088Y-98500000D01*
X205637288Y-98589550D01*
M02*
