M48
;DRILL file {KiCad 4.0.2-stable} date Saturday, August 27, 2016 'PMt' 12:15:52 PM
;FORMAT={2:4/ absolute / inch / suppress leading zeros}
FMAT,2
INCH,TZ
T1C0.016
T2C0.039
T3C0.059
%
G90
G05
M72
T1
X21900Y-40900
X23100Y-43200
X23100Y-43900
X23850Y-40700
X23850Y-45000
X27200Y-39950
X28700Y-46600
X30500Y-47000
X33600Y-40400
X33600Y-40850
X33600Y-41350
X33600Y-41850
X33600Y-42350
X33850Y-39300
X34300Y-43350
X35450Y-43350
X36950Y-39300
X38450Y-42350
X39600Y-43400
X39950Y-39300
X40450Y-43400
X41500Y-40850
X42550Y-42950
X42550Y-43400
X42950Y-39300
X43450Y-42950
X43450Y-43400
X44550Y-40400
X45450Y-42500
X45450Y-42950
X45450Y-43400
X45950Y-39300
X46500Y-42500
X46500Y-42950
X46500Y-43400
X47600Y-41850
X48600Y-42100
X48600Y-42500
X48600Y-42950
X48600Y-43400
X48950Y-39300
X49450Y-42100
X49450Y-42500
X49450Y-42950
X49450Y-43400
X50650Y-41350
X51500Y-41700
X51500Y-42100
X51500Y-42500
X51500Y-42950
X51500Y-43400
X51950Y-39300
X52450Y-41700
X52450Y-42100
X52450Y-42500
X52450Y-42950
X52450Y-43400
X54600Y-41300
X54600Y-41700
X54600Y-42100
X54600Y-42500
X54600Y-42950
X54600Y-43400
X54950Y-39300
X55450Y-41300
X55450Y-41700
X55450Y-42100
X55450Y-42500
X55450Y-42950
X55450Y-43400
T2
X33900Y-44200
X34900Y-44200
X37000Y-44200
X38000Y-44200
X40000Y-44200
X41000Y-44200
X43000Y-44200
X44000Y-44200
X46000Y-44200
X47000Y-44200
X49000Y-44200
X50000Y-44200
X52000Y-44200
X53000Y-44200
X55000Y-44200
X56000Y-44200
X58000Y-44200
X59000Y-44200
X61000Y-44200
X62000Y-44200
X64000Y-44200
X65000Y-44200
X67000Y-44200
X68000Y-44200
X70000Y-44200
X71000Y-44200
X73000Y-44200
X74000Y-44200
X76000Y-44200
X77000Y-44200
X79000Y-44200
X80000Y-44200
T3
X15562Y-41439
X17531Y-39432
X17531Y-40495
X17531Y-42384
X17531Y-43447
T2
X16179Y-46207G85X16179Y-46993
G05
X16967Y-48450G85X17754Y-48450
G05
X18541Y-46207G85X18541Y-46993
G05
T0
M30
