G04 #@! TF.FileFunction,Legend,Top*
%FSLAX46Y46*%
G04 Gerber Fmt 4.6, Leading zero omitted, Abs format (unit mm)*
G04 Created by KiCad (PCBNEW 4.0.2-stable) date Saturday, August 27, 2016 'PMt' 12:15:44 PM*
%MOMM*%
G01*
G04 APERTURE LIST*
%ADD10C,0.100000*%
%ADD11C,0.500000*%
%ADD12C,0.150000*%
%ADD13C,0.152400*%
%ADD14C,0.127000*%
G04 APERTURE END LIST*
D10*
D11*
X155132571Y-105497143D02*
X155132571Y-102497143D01*
X155132571Y-103925714D02*
X156846856Y-103925714D01*
X156846856Y-105497143D02*
X156846856Y-102497143D01*
X159418285Y-105354286D02*
X159132571Y-105497143D01*
X158561142Y-105497143D01*
X158275428Y-105354286D01*
X158132571Y-105068571D01*
X158132571Y-103925714D01*
X158275428Y-103640000D01*
X158561142Y-103497143D01*
X159132571Y-103497143D01*
X159418285Y-103640000D01*
X159561142Y-103925714D01*
X159561142Y-104211429D01*
X158132571Y-104497143D01*
X161275428Y-105497143D02*
X160989714Y-105354286D01*
X160846857Y-105068571D01*
X160846857Y-102497143D01*
X162846857Y-105497143D02*
X162561143Y-105354286D01*
X162418286Y-105068571D01*
X162418286Y-102497143D01*
X163846858Y-105354286D02*
X164275429Y-105497143D01*
X164989715Y-105497143D01*
X165275429Y-105354286D01*
X165418286Y-105211429D01*
X165561143Y-104925714D01*
X165561143Y-104640000D01*
X165418286Y-104354286D01*
X165275429Y-104211429D01*
X164989715Y-104068571D01*
X164418286Y-103925714D01*
X164132572Y-103782857D01*
X163989715Y-103640000D01*
X163846858Y-103354286D01*
X163846858Y-103068571D01*
X163989715Y-102782857D01*
X164132572Y-102640000D01*
X164418286Y-102497143D01*
X165132572Y-102497143D01*
X165561143Y-102640000D01*
X168132572Y-105354286D02*
X167846858Y-105497143D01*
X167275429Y-105497143D01*
X166989715Y-105354286D01*
X166846858Y-105211429D01*
X166704001Y-104925714D01*
X166704001Y-104068571D01*
X166846858Y-103782857D01*
X166989715Y-103640000D01*
X167275429Y-103497143D01*
X167846858Y-103497143D01*
X168132572Y-103640000D01*
X169418287Y-105497143D02*
X169418287Y-103497143D01*
X169418287Y-104068571D02*
X169561144Y-103782857D01*
X169704001Y-103640000D01*
X169989715Y-103497143D01*
X170275430Y-103497143D01*
X171275430Y-105497143D02*
X171275430Y-103497143D01*
X171275430Y-102497143D02*
X171132573Y-102640000D01*
X171275430Y-102782857D01*
X171418287Y-102640000D01*
X171275430Y-102497143D01*
X171275430Y-102782857D01*
X172704001Y-105497143D02*
X172704001Y-102497143D01*
X172704001Y-103640000D02*
X172989715Y-103497143D01*
X173561144Y-103497143D01*
X173846858Y-103640000D01*
X173989715Y-103782857D01*
X174132572Y-104068571D01*
X174132572Y-104925714D01*
X173989715Y-105211429D01*
X173846858Y-105354286D01*
X173561144Y-105497143D01*
X172989715Y-105497143D01*
X172704001Y-105354286D01*
X176561144Y-105354286D02*
X176275430Y-105497143D01*
X175704001Y-105497143D01*
X175418287Y-105354286D01*
X175275430Y-105068571D01*
X175275430Y-103925714D01*
X175418287Y-103640000D01*
X175704001Y-103497143D01*
X176275430Y-103497143D01*
X176561144Y-103640000D01*
X176704001Y-103925714D01*
X176704001Y-104211429D01*
X175275430Y-104497143D01*
X179989715Y-103497143D02*
X180704001Y-105497143D01*
X181418287Y-103497143D01*
X184132572Y-105497143D02*
X182418287Y-105497143D01*
X183275429Y-105497143D02*
X183275429Y-102497143D01*
X182989715Y-102925714D01*
X182704001Y-103211429D01*
X182418287Y-103354286D01*
X185418287Y-105211429D02*
X185561144Y-105354286D01*
X185418287Y-105497143D01*
X185275430Y-105354286D01*
X185418287Y-105211429D01*
X185418287Y-105497143D01*
X187418286Y-102497143D02*
X187704001Y-102497143D01*
X187989715Y-102640000D01*
X188132572Y-102782857D01*
X188275429Y-103068571D01*
X188418286Y-103640000D01*
X188418286Y-104354286D01*
X188275429Y-104925714D01*
X188132572Y-105211429D01*
X187989715Y-105354286D01*
X187704001Y-105497143D01*
X187418286Y-105497143D01*
X187132572Y-105354286D01*
X186989715Y-105211429D01*
X186846858Y-104925714D01*
X186704001Y-104354286D01*
X186704001Y-103640000D01*
X186846858Y-103068571D01*
X186989715Y-102782857D01*
X187132572Y-102640000D01*
X187418286Y-102497143D01*
D12*
X78136000Y-112430000D02*
X78836000Y-112430000D01*
X78836000Y-113630000D02*
X78136000Y-113630000D01*
X71028000Y-112872000D02*
X71028000Y-112172000D01*
X72228000Y-112172000D02*
X72228000Y-112872000D01*
X52166000Y-111090000D02*
X51466000Y-111090000D01*
X51466000Y-109890000D02*
X52166000Y-109890000D01*
X61630000Y-118206000D02*
X61630000Y-117506000D01*
X62830000Y-117506000D02*
X62830000Y-118206000D01*
X63150000Y-105064000D02*
X63850000Y-105064000D01*
X63850000Y-106264000D02*
X63150000Y-106264000D01*
X51216000Y-119730000D02*
X51216000Y-119030000D01*
X52416000Y-119030000D02*
X52416000Y-119730000D01*
X36893500Y-113863120D02*
X36893500Y-122864880D01*
X33393380Y-113863120D02*
X33393380Y-122864880D01*
X33393380Y-122864880D02*
X47894240Y-122864880D01*
X47894240Y-122864880D02*
X47894240Y-113863120D01*
X47894240Y-113863120D02*
X33393380Y-113863120D01*
X84891112Y-113792904D02*
G75*
G03X84876000Y-110768000I2484888J1524904D01*
G01*
X84876000Y-113768000D02*
X84876000Y-110768000D01*
X89893936Y-112268000D02*
G75*
G03X89893936Y-112268000I-2517936J0D01*
G01*
X146105112Y-113792904D02*
G75*
G03X146090000Y-110768000I2484888J1524904D01*
G01*
X146090000Y-113768000D02*
X146090000Y-110768000D01*
X151107936Y-112268000D02*
G75*
G03X151107936Y-112268000I-2517936J0D01*
G01*
X92765112Y-113792904D02*
G75*
G03X92750000Y-110768000I2484888J1524904D01*
G01*
X92750000Y-113768000D02*
X92750000Y-110768000D01*
X97767936Y-112268000D02*
G75*
G03X97767936Y-112268000I-2517936J0D01*
G01*
X153725112Y-113792904D02*
G75*
G03X153710000Y-110768000I2484888J1524904D01*
G01*
X153710000Y-113768000D02*
X153710000Y-110768000D01*
X158727936Y-112268000D02*
G75*
G03X158727936Y-112268000I-2517936J0D01*
G01*
X100385112Y-113792904D02*
G75*
G03X100370000Y-110768000I2484888J1524904D01*
G01*
X100370000Y-113768000D02*
X100370000Y-110768000D01*
X105387936Y-112268000D02*
G75*
G03X105387936Y-112268000I-2517936J0D01*
G01*
X161345112Y-113792904D02*
G75*
G03X161330000Y-110768000I2484888J1524904D01*
G01*
X161330000Y-113768000D02*
X161330000Y-110768000D01*
X166347936Y-112268000D02*
G75*
G03X166347936Y-112268000I-2517936J0D01*
G01*
X108005112Y-113792904D02*
G75*
G03X107990000Y-110768000I2484888J1524904D01*
G01*
X107990000Y-113768000D02*
X107990000Y-110768000D01*
X113007936Y-112268000D02*
G75*
G03X113007936Y-112268000I-2517936J0D01*
G01*
X168965112Y-113792904D02*
G75*
G03X168950000Y-110768000I2484888J1524904D01*
G01*
X168950000Y-113768000D02*
X168950000Y-110768000D01*
X173967936Y-112268000D02*
G75*
G03X173967936Y-112268000I-2517936J0D01*
G01*
X115625112Y-113792904D02*
G75*
G03X115610000Y-110768000I2484888J1524904D01*
G01*
X115610000Y-113768000D02*
X115610000Y-110768000D01*
X120627936Y-112268000D02*
G75*
G03X120627936Y-112268000I-2517936J0D01*
G01*
X176585112Y-113792904D02*
G75*
G03X176570000Y-110768000I2484888J1524904D01*
G01*
X176570000Y-113768000D02*
X176570000Y-110768000D01*
X181587936Y-112268000D02*
G75*
G03X181587936Y-112268000I-2517936J0D01*
G01*
X123245112Y-113792904D02*
G75*
G03X123230000Y-110768000I2484888J1524904D01*
G01*
X123230000Y-113768000D02*
X123230000Y-110768000D01*
X128247936Y-112268000D02*
G75*
G03X128247936Y-112268000I-2517936J0D01*
G01*
X184205112Y-113792904D02*
G75*
G03X184190000Y-110768000I2484888J1524904D01*
G01*
X184190000Y-113768000D02*
X184190000Y-110768000D01*
X189207936Y-112268000D02*
G75*
G03X189207936Y-112268000I-2517936J0D01*
G01*
X130865112Y-113792904D02*
G75*
G03X130850000Y-110768000I2484888J1524904D01*
G01*
X130850000Y-113768000D02*
X130850000Y-110768000D01*
X135867936Y-112268000D02*
G75*
G03X135867936Y-112268000I-2517936J0D01*
G01*
X191825112Y-113792904D02*
G75*
G03X191810000Y-110768000I2484888J1524904D01*
G01*
X191810000Y-113768000D02*
X191810000Y-110768000D01*
X196827936Y-112268000D02*
G75*
G03X196827936Y-112268000I-2517936J0D01*
G01*
X138485112Y-113792904D02*
G75*
G03X138470000Y-110768000I2484888J1524904D01*
G01*
X138470000Y-113768000D02*
X138470000Y-110768000D01*
X143487936Y-112268000D02*
G75*
G03X143487936Y-112268000I-2517936J0D01*
G01*
X199445112Y-113792904D02*
G75*
G03X199430000Y-110768000I2484888J1524904D01*
G01*
X199430000Y-113768000D02*
X199430000Y-110768000D01*
X204447936Y-112268000D02*
G75*
G03X204447936Y-112268000I-2517936J0D01*
G01*
D13*
X36619180Y-111297720D02*
X36619180Y-108303060D01*
X48341280Y-99214940D02*
X48341280Y-111297720D01*
X36619180Y-102209600D02*
X33870900Y-102209600D01*
X33870900Y-108303060D02*
X36619180Y-108303060D01*
X36619180Y-108303060D02*
X36619180Y-102209600D01*
X36619180Y-102209600D02*
X36619180Y-99214940D01*
X33870900Y-102209600D02*
X33362900Y-102717600D01*
X33870900Y-108303060D02*
X33362900Y-107795060D01*
X33362900Y-107795060D02*
X33362900Y-102717600D01*
X33870900Y-108303060D02*
X33870900Y-102209600D01*
X36619180Y-111297720D02*
X41734740Y-111297720D01*
X43893740Y-111297720D02*
X48341280Y-111297720D01*
X48341280Y-99214940D02*
X48338740Y-99214940D01*
X46433740Y-99214940D02*
X36619180Y-99214940D01*
D12*
X88929160Y-100187760D02*
X88880900Y-100187760D01*
X86130180Y-100888800D02*
X86130180Y-100187760D01*
X86130180Y-100187760D02*
X86379100Y-100187760D01*
X88929160Y-100187760D02*
X89129820Y-100187760D01*
X89129820Y-100187760D02*
X89129820Y-100888800D01*
X96803160Y-100187760D02*
X96754900Y-100187760D01*
X94004180Y-100888800D02*
X94004180Y-100187760D01*
X94004180Y-100187760D02*
X94253100Y-100187760D01*
X96803160Y-100187760D02*
X97003820Y-100187760D01*
X97003820Y-100187760D02*
X97003820Y-100888800D01*
X104423160Y-100187760D02*
X104374900Y-100187760D01*
X101624180Y-100888800D02*
X101624180Y-100187760D01*
X101624180Y-100187760D02*
X101873100Y-100187760D01*
X104423160Y-100187760D02*
X104623820Y-100187760D01*
X104623820Y-100187760D02*
X104623820Y-100888800D01*
X112043160Y-100187760D02*
X111994900Y-100187760D01*
X109244180Y-100888800D02*
X109244180Y-100187760D01*
X109244180Y-100187760D02*
X109493100Y-100187760D01*
X112043160Y-100187760D02*
X112243820Y-100187760D01*
X112243820Y-100187760D02*
X112243820Y-100888800D01*
X119663160Y-100187760D02*
X119614900Y-100187760D01*
X116864180Y-100888800D02*
X116864180Y-100187760D01*
X116864180Y-100187760D02*
X117113100Y-100187760D01*
X119663160Y-100187760D02*
X119863820Y-100187760D01*
X119863820Y-100187760D02*
X119863820Y-100888800D01*
X127283160Y-100187760D02*
X127234900Y-100187760D01*
X124484180Y-100888800D02*
X124484180Y-100187760D01*
X124484180Y-100187760D02*
X124733100Y-100187760D01*
X127283160Y-100187760D02*
X127483820Y-100187760D01*
X127483820Y-100187760D02*
X127483820Y-100888800D01*
X134903160Y-100187760D02*
X134854900Y-100187760D01*
X132104180Y-100888800D02*
X132104180Y-100187760D01*
X132104180Y-100187760D02*
X132353100Y-100187760D01*
X134903160Y-100187760D02*
X135103820Y-100187760D01*
X135103820Y-100187760D02*
X135103820Y-100888800D01*
X142523160Y-100187760D02*
X142474900Y-100187760D01*
X139724180Y-100888800D02*
X139724180Y-100187760D01*
X139724180Y-100187760D02*
X139973100Y-100187760D01*
X142523160Y-100187760D02*
X142723820Y-100187760D01*
X142723820Y-100187760D02*
X142723820Y-100888800D01*
X68413000Y-104894000D02*
X68413000Y-103894000D01*
X69763000Y-103894000D02*
X69763000Y-104894000D01*
X70858000Y-109895000D02*
X69858000Y-109895000D01*
X69858000Y-108545000D02*
X70858000Y-108545000D01*
X70017000Y-112022000D02*
X70017000Y-113022000D01*
X68667000Y-113022000D02*
X68667000Y-112022000D01*
X78145000Y-116086000D02*
X78145000Y-117086000D01*
X76795000Y-117086000D02*
X76795000Y-116086000D01*
X69858000Y-115403000D02*
X70858000Y-115403000D01*
X70858000Y-116753000D02*
X69858000Y-116753000D01*
X70858000Y-119039000D02*
X69858000Y-119039000D01*
X69858000Y-117689000D02*
X70858000Y-117689000D01*
X54951000Y-107180000D02*
X54951000Y-106180000D01*
X56301000Y-106180000D02*
X56301000Y-107180000D01*
X54951000Y-112260000D02*
X54951000Y-111260000D01*
X56301000Y-111260000D02*
X56301000Y-112260000D01*
X63000000Y-113625000D02*
X64000000Y-113625000D01*
X64000000Y-114975000D02*
X63000000Y-114975000D01*
X64095000Y-118356000D02*
X64095000Y-117356000D01*
X65445000Y-117356000D02*
X65445000Y-118356000D01*
X64000000Y-104053000D02*
X63000000Y-104053000D01*
X63000000Y-102703000D02*
X64000000Y-102703000D01*
X57158000Y-122007000D02*
X58158000Y-122007000D01*
X58158000Y-123357000D02*
X57158000Y-123357000D01*
X65786000Y-107442000D02*
X65786000Y-112522000D01*
X65786000Y-112522000D02*
X61214000Y-112522000D01*
X61214000Y-112522000D02*
X61214000Y-107442000D01*
X61214000Y-107442000D02*
X65786000Y-107442000D01*
X64262000Y-107442000D02*
X64262000Y-107950000D01*
X64262000Y-107950000D02*
X62992000Y-107950000D01*
X62992000Y-107950000D02*
X62992000Y-107442000D01*
X77724000Y-111252000D02*
X77724000Y-110490000D01*
X77724000Y-110490000D02*
X79248000Y-110490000D01*
X79248000Y-110490000D02*
X79248000Y-111252000D01*
X76200000Y-100076000D02*
X80772000Y-100076000D01*
X80772000Y-100076000D02*
X80772000Y-111252000D01*
X80772000Y-111252000D02*
X76200000Y-111252000D01*
X76200000Y-111252000D02*
X76200000Y-100076000D01*
X69117160Y-122031760D02*
X69068900Y-122031760D01*
X66318180Y-122732800D02*
X66318180Y-122031760D01*
X66318180Y-122031760D02*
X66567100Y-122031760D01*
X69117160Y-122031760D02*
X69317820Y-122031760D01*
X69317820Y-122031760D02*
X69317820Y-122732800D01*
X72890000Y-124119000D02*
X71890000Y-124119000D01*
X71890000Y-122769000D02*
X72890000Y-122769000D01*
X62341760Y-121382840D02*
X62341760Y-121431100D01*
X63042800Y-124181820D02*
X62341760Y-124181820D01*
X62341760Y-124181820D02*
X62341760Y-123932900D01*
X62341760Y-121382840D02*
X62341760Y-121182180D01*
X62341760Y-121182180D02*
X63042800Y-121182180D01*
X81367334Y-113387143D02*
X81319715Y-113434762D01*
X81176858Y-113482381D01*
X81081620Y-113482381D01*
X80938762Y-113434762D01*
X80843524Y-113339524D01*
X80795905Y-113244286D01*
X80748286Y-113053810D01*
X80748286Y-112910952D01*
X80795905Y-112720476D01*
X80843524Y-112625238D01*
X80938762Y-112530000D01*
X81081620Y-112482381D01*
X81176858Y-112482381D01*
X81319715Y-112530000D01*
X81367334Y-112577619D01*
X82319715Y-113482381D02*
X81748286Y-113482381D01*
X82034000Y-113482381D02*
X82034000Y-112482381D01*
X81938762Y-112625238D01*
X81843524Y-112720476D01*
X81748286Y-112768095D01*
X73763143Y-112688666D02*
X73810762Y-112736285D01*
X73858381Y-112879142D01*
X73858381Y-112974380D01*
X73810762Y-113117238D01*
X73715524Y-113212476D01*
X73620286Y-113260095D01*
X73429810Y-113307714D01*
X73286952Y-113307714D01*
X73096476Y-113260095D01*
X73001238Y-113212476D01*
X72906000Y-113117238D01*
X72858381Y-112974380D01*
X72858381Y-112879142D01*
X72906000Y-112736285D01*
X72953619Y-112688666D01*
X72953619Y-112307714D02*
X72906000Y-112260095D01*
X72858381Y-112164857D01*
X72858381Y-111926761D01*
X72906000Y-111831523D01*
X72953619Y-111783904D01*
X73048857Y-111736285D01*
X73144095Y-111736285D01*
X73286952Y-111783904D01*
X73858381Y-112355333D01*
X73858381Y-111736285D01*
X51649334Y-109069143D02*
X51601715Y-109116762D01*
X51458858Y-109164381D01*
X51363620Y-109164381D01*
X51220762Y-109116762D01*
X51125524Y-109021524D01*
X51077905Y-108926286D01*
X51030286Y-108735810D01*
X51030286Y-108592952D01*
X51077905Y-108402476D01*
X51125524Y-108307238D01*
X51220762Y-108212000D01*
X51363620Y-108164381D01*
X51458858Y-108164381D01*
X51601715Y-108212000D01*
X51649334Y-108259619D01*
X51982667Y-108164381D02*
X52601715Y-108164381D01*
X52268381Y-108545333D01*
X52411239Y-108545333D01*
X52506477Y-108592952D01*
X52554096Y-108640571D01*
X52601715Y-108735810D01*
X52601715Y-108973905D01*
X52554096Y-109069143D01*
X52506477Y-109116762D01*
X52411239Y-109164381D01*
X52125524Y-109164381D01*
X52030286Y-109116762D01*
X51982667Y-109069143D01*
X60687143Y-118022666D02*
X60734762Y-118070285D01*
X60782381Y-118213142D01*
X60782381Y-118308380D01*
X60734762Y-118451238D01*
X60639524Y-118546476D01*
X60544286Y-118594095D01*
X60353810Y-118641714D01*
X60210952Y-118641714D01*
X60020476Y-118594095D01*
X59925238Y-118546476D01*
X59830000Y-118451238D01*
X59782381Y-118308380D01*
X59782381Y-118213142D01*
X59830000Y-118070285D01*
X59877619Y-118022666D01*
X60115714Y-117165523D02*
X60782381Y-117165523D01*
X59734762Y-117403619D02*
X60449048Y-117641714D01*
X60449048Y-117022666D01*
X60285334Y-106021143D02*
X60237715Y-106068762D01*
X60094858Y-106116381D01*
X59999620Y-106116381D01*
X59856762Y-106068762D01*
X59761524Y-105973524D01*
X59713905Y-105878286D01*
X59666286Y-105687810D01*
X59666286Y-105544952D01*
X59713905Y-105354476D01*
X59761524Y-105259238D01*
X59856762Y-105164000D01*
X59999620Y-105116381D01*
X60094858Y-105116381D01*
X60237715Y-105164000D01*
X60285334Y-105211619D01*
X61190096Y-105116381D02*
X60713905Y-105116381D01*
X60666286Y-105592571D01*
X60713905Y-105544952D01*
X60809143Y-105497333D01*
X61047239Y-105497333D01*
X61142477Y-105544952D01*
X61190096Y-105592571D01*
X61237715Y-105687810D01*
X61237715Y-105925905D01*
X61190096Y-106021143D01*
X61142477Y-106068762D01*
X61047239Y-106116381D01*
X60809143Y-106116381D01*
X60713905Y-106068762D01*
X60666286Y-106021143D01*
X53951143Y-119546666D02*
X53998762Y-119594285D01*
X54046381Y-119737142D01*
X54046381Y-119832380D01*
X53998762Y-119975238D01*
X53903524Y-120070476D01*
X53808286Y-120118095D01*
X53617810Y-120165714D01*
X53474952Y-120165714D01*
X53284476Y-120118095D01*
X53189238Y-120070476D01*
X53094000Y-119975238D01*
X53046381Y-119832380D01*
X53046381Y-119737142D01*
X53094000Y-119594285D01*
X53141619Y-119546666D01*
X53046381Y-118689523D02*
X53046381Y-118880000D01*
X53094000Y-118975238D01*
X53141619Y-119022857D01*
X53284476Y-119118095D01*
X53474952Y-119165714D01*
X53855905Y-119165714D01*
X53951143Y-119118095D01*
X53998762Y-119070476D01*
X54046381Y-118975238D01*
X54046381Y-118784761D01*
X53998762Y-118689523D01*
X53951143Y-118641904D01*
X53855905Y-118594285D01*
X53617810Y-118594285D01*
X53522571Y-118641904D01*
X53474952Y-118689523D01*
X53427333Y-118784761D01*
X53427333Y-118975238D01*
X53474952Y-119070476D01*
X53522571Y-119118095D01*
X53617810Y-119165714D01*
X35409143Y-119324285D02*
X35456762Y-119371904D01*
X35504381Y-119514761D01*
X35504381Y-119609999D01*
X35456762Y-119752857D01*
X35361524Y-119848095D01*
X35266286Y-119895714D01*
X35075810Y-119943333D01*
X34932952Y-119943333D01*
X34742476Y-119895714D01*
X34647238Y-119848095D01*
X34552000Y-119752857D01*
X34504381Y-119609999D01*
X34504381Y-119514761D01*
X34552000Y-119371904D01*
X34599619Y-119324285D01*
X34504381Y-118705238D02*
X34504381Y-118514761D01*
X34552000Y-118419523D01*
X34647238Y-118324285D01*
X34837714Y-118276666D01*
X35171048Y-118276666D01*
X35361524Y-118324285D01*
X35456762Y-118419523D01*
X35504381Y-118514761D01*
X35504381Y-118705238D01*
X35456762Y-118800476D01*
X35361524Y-118895714D01*
X35171048Y-118943333D01*
X34837714Y-118943333D01*
X34647238Y-118895714D01*
X34552000Y-118800476D01*
X34504381Y-118705238D01*
X35504381Y-117848095D02*
X34504381Y-117848095D01*
X35504381Y-117276666D01*
X34504381Y-117276666D01*
X35504381Y-116276666D02*
X35504381Y-116848095D01*
X35504381Y-116562381D02*
X34504381Y-116562381D01*
X34647238Y-116657619D01*
X34742476Y-116752857D01*
X34790095Y-116848095D01*
X86891905Y-116784381D02*
X86891905Y-115784381D01*
X87130000Y-115784381D01*
X87272858Y-115832000D01*
X87368096Y-115927238D01*
X87415715Y-116022476D01*
X87463334Y-116212952D01*
X87463334Y-116355810D01*
X87415715Y-116546286D01*
X87368096Y-116641524D01*
X87272858Y-116736762D01*
X87130000Y-116784381D01*
X86891905Y-116784381D01*
X88415715Y-116784381D02*
X87844286Y-116784381D01*
X88130000Y-116784381D02*
X88130000Y-115784381D01*
X88034762Y-115927238D01*
X87939524Y-116022476D01*
X87844286Y-116070095D01*
X83939095Y-114625381D02*
X83939095Y-113625381D01*
X84510524Y-114625381D02*
X84081952Y-114053952D01*
X84510524Y-113625381D02*
X83939095Y-114196810D01*
X148105905Y-116784381D02*
X148105905Y-115784381D01*
X148344000Y-115784381D01*
X148486858Y-115832000D01*
X148582096Y-115927238D01*
X148629715Y-116022476D01*
X148677334Y-116212952D01*
X148677334Y-116355810D01*
X148629715Y-116546286D01*
X148582096Y-116641524D01*
X148486858Y-116736762D01*
X148344000Y-116784381D01*
X148105905Y-116784381D01*
X149058286Y-115879619D02*
X149105905Y-115832000D01*
X149201143Y-115784381D01*
X149439239Y-115784381D01*
X149534477Y-115832000D01*
X149582096Y-115879619D01*
X149629715Y-115974857D01*
X149629715Y-116070095D01*
X149582096Y-116212952D01*
X149010667Y-116784381D01*
X149629715Y-116784381D01*
X145153095Y-114625381D02*
X145153095Y-113625381D01*
X145724524Y-114625381D02*
X145295952Y-114053952D01*
X145724524Y-113625381D02*
X145153095Y-114196810D01*
X94765905Y-116784381D02*
X94765905Y-115784381D01*
X95004000Y-115784381D01*
X95146858Y-115832000D01*
X95242096Y-115927238D01*
X95289715Y-116022476D01*
X95337334Y-116212952D01*
X95337334Y-116355810D01*
X95289715Y-116546286D01*
X95242096Y-116641524D01*
X95146858Y-116736762D01*
X95004000Y-116784381D01*
X94765905Y-116784381D01*
X95670667Y-115784381D02*
X96289715Y-115784381D01*
X95956381Y-116165333D01*
X96099239Y-116165333D01*
X96194477Y-116212952D01*
X96242096Y-116260571D01*
X96289715Y-116355810D01*
X96289715Y-116593905D01*
X96242096Y-116689143D01*
X96194477Y-116736762D01*
X96099239Y-116784381D01*
X95813524Y-116784381D01*
X95718286Y-116736762D01*
X95670667Y-116689143D01*
X91813095Y-114625381D02*
X91813095Y-113625381D01*
X92384524Y-114625381D02*
X91955952Y-114053952D01*
X92384524Y-113625381D02*
X91813095Y-114196810D01*
X155725905Y-116784381D02*
X155725905Y-115784381D01*
X155964000Y-115784381D01*
X156106858Y-115832000D01*
X156202096Y-115927238D01*
X156249715Y-116022476D01*
X156297334Y-116212952D01*
X156297334Y-116355810D01*
X156249715Y-116546286D01*
X156202096Y-116641524D01*
X156106858Y-116736762D01*
X155964000Y-116784381D01*
X155725905Y-116784381D01*
X157154477Y-116117714D02*
X157154477Y-116784381D01*
X156916381Y-115736762D02*
X156678286Y-116451048D01*
X157297334Y-116451048D01*
X152773095Y-114625381D02*
X152773095Y-113625381D01*
X153344524Y-114625381D02*
X152915952Y-114053952D01*
X153344524Y-113625381D02*
X152773095Y-114196810D01*
X102385905Y-116784381D02*
X102385905Y-115784381D01*
X102624000Y-115784381D01*
X102766858Y-115832000D01*
X102862096Y-115927238D01*
X102909715Y-116022476D01*
X102957334Y-116212952D01*
X102957334Y-116355810D01*
X102909715Y-116546286D01*
X102862096Y-116641524D01*
X102766858Y-116736762D01*
X102624000Y-116784381D01*
X102385905Y-116784381D01*
X103862096Y-115784381D02*
X103385905Y-115784381D01*
X103338286Y-116260571D01*
X103385905Y-116212952D01*
X103481143Y-116165333D01*
X103719239Y-116165333D01*
X103814477Y-116212952D01*
X103862096Y-116260571D01*
X103909715Y-116355810D01*
X103909715Y-116593905D01*
X103862096Y-116689143D01*
X103814477Y-116736762D01*
X103719239Y-116784381D01*
X103481143Y-116784381D01*
X103385905Y-116736762D01*
X103338286Y-116689143D01*
X99433095Y-114625381D02*
X99433095Y-113625381D01*
X100004524Y-114625381D02*
X99575952Y-114053952D01*
X100004524Y-113625381D02*
X99433095Y-114196810D01*
X163345905Y-116784381D02*
X163345905Y-115784381D01*
X163584000Y-115784381D01*
X163726858Y-115832000D01*
X163822096Y-115927238D01*
X163869715Y-116022476D01*
X163917334Y-116212952D01*
X163917334Y-116355810D01*
X163869715Y-116546286D01*
X163822096Y-116641524D01*
X163726858Y-116736762D01*
X163584000Y-116784381D01*
X163345905Y-116784381D01*
X164774477Y-115784381D02*
X164584000Y-115784381D01*
X164488762Y-115832000D01*
X164441143Y-115879619D01*
X164345905Y-116022476D01*
X164298286Y-116212952D01*
X164298286Y-116593905D01*
X164345905Y-116689143D01*
X164393524Y-116736762D01*
X164488762Y-116784381D01*
X164679239Y-116784381D01*
X164774477Y-116736762D01*
X164822096Y-116689143D01*
X164869715Y-116593905D01*
X164869715Y-116355810D01*
X164822096Y-116260571D01*
X164774477Y-116212952D01*
X164679239Y-116165333D01*
X164488762Y-116165333D01*
X164393524Y-116212952D01*
X164345905Y-116260571D01*
X164298286Y-116355810D01*
X160393095Y-114625381D02*
X160393095Y-113625381D01*
X160964524Y-114625381D02*
X160535952Y-114053952D01*
X160964524Y-113625381D02*
X160393095Y-114196810D01*
X110005905Y-116784381D02*
X110005905Y-115784381D01*
X110244000Y-115784381D01*
X110386858Y-115832000D01*
X110482096Y-115927238D01*
X110529715Y-116022476D01*
X110577334Y-116212952D01*
X110577334Y-116355810D01*
X110529715Y-116546286D01*
X110482096Y-116641524D01*
X110386858Y-116736762D01*
X110244000Y-116784381D01*
X110005905Y-116784381D01*
X110910667Y-115784381D02*
X111577334Y-115784381D01*
X111148762Y-116784381D01*
X107053095Y-114625381D02*
X107053095Y-113625381D01*
X107624524Y-114625381D02*
X107195952Y-114053952D01*
X107624524Y-113625381D02*
X107053095Y-114196810D01*
X170965905Y-116784381D02*
X170965905Y-115784381D01*
X171204000Y-115784381D01*
X171346858Y-115832000D01*
X171442096Y-115927238D01*
X171489715Y-116022476D01*
X171537334Y-116212952D01*
X171537334Y-116355810D01*
X171489715Y-116546286D01*
X171442096Y-116641524D01*
X171346858Y-116736762D01*
X171204000Y-116784381D01*
X170965905Y-116784381D01*
X172108762Y-116212952D02*
X172013524Y-116165333D01*
X171965905Y-116117714D01*
X171918286Y-116022476D01*
X171918286Y-115974857D01*
X171965905Y-115879619D01*
X172013524Y-115832000D01*
X172108762Y-115784381D01*
X172299239Y-115784381D01*
X172394477Y-115832000D01*
X172442096Y-115879619D01*
X172489715Y-115974857D01*
X172489715Y-116022476D01*
X172442096Y-116117714D01*
X172394477Y-116165333D01*
X172299239Y-116212952D01*
X172108762Y-116212952D01*
X172013524Y-116260571D01*
X171965905Y-116308190D01*
X171918286Y-116403429D01*
X171918286Y-116593905D01*
X171965905Y-116689143D01*
X172013524Y-116736762D01*
X172108762Y-116784381D01*
X172299239Y-116784381D01*
X172394477Y-116736762D01*
X172442096Y-116689143D01*
X172489715Y-116593905D01*
X172489715Y-116403429D01*
X172442096Y-116308190D01*
X172394477Y-116260571D01*
X172299239Y-116212952D01*
X168013095Y-114625381D02*
X168013095Y-113625381D01*
X168584524Y-114625381D02*
X168155952Y-114053952D01*
X168584524Y-113625381D02*
X168013095Y-114196810D01*
X117625905Y-116784381D02*
X117625905Y-115784381D01*
X117864000Y-115784381D01*
X118006858Y-115832000D01*
X118102096Y-115927238D01*
X118149715Y-116022476D01*
X118197334Y-116212952D01*
X118197334Y-116355810D01*
X118149715Y-116546286D01*
X118102096Y-116641524D01*
X118006858Y-116736762D01*
X117864000Y-116784381D01*
X117625905Y-116784381D01*
X118673524Y-116784381D02*
X118864000Y-116784381D01*
X118959239Y-116736762D01*
X119006858Y-116689143D01*
X119102096Y-116546286D01*
X119149715Y-116355810D01*
X119149715Y-115974857D01*
X119102096Y-115879619D01*
X119054477Y-115832000D01*
X118959239Y-115784381D01*
X118768762Y-115784381D01*
X118673524Y-115832000D01*
X118625905Y-115879619D01*
X118578286Y-115974857D01*
X118578286Y-116212952D01*
X118625905Y-116308190D01*
X118673524Y-116355810D01*
X118768762Y-116403429D01*
X118959239Y-116403429D01*
X119054477Y-116355810D01*
X119102096Y-116308190D01*
X119149715Y-116212952D01*
X114673095Y-114625381D02*
X114673095Y-113625381D01*
X115244524Y-114625381D02*
X114815952Y-114053952D01*
X115244524Y-113625381D02*
X114673095Y-114196810D01*
X178109714Y-116784381D02*
X178109714Y-115784381D01*
X178347809Y-115784381D01*
X178490667Y-115832000D01*
X178585905Y-115927238D01*
X178633524Y-116022476D01*
X178681143Y-116212952D01*
X178681143Y-116355810D01*
X178633524Y-116546286D01*
X178585905Y-116641524D01*
X178490667Y-116736762D01*
X178347809Y-116784381D01*
X178109714Y-116784381D01*
X179633524Y-116784381D02*
X179062095Y-116784381D01*
X179347809Y-116784381D02*
X179347809Y-115784381D01*
X179252571Y-115927238D01*
X179157333Y-116022476D01*
X179062095Y-116070095D01*
X180252571Y-115784381D02*
X180347810Y-115784381D01*
X180443048Y-115832000D01*
X180490667Y-115879619D01*
X180538286Y-115974857D01*
X180585905Y-116165333D01*
X180585905Y-116403429D01*
X180538286Y-116593905D01*
X180490667Y-116689143D01*
X180443048Y-116736762D01*
X180347810Y-116784381D01*
X180252571Y-116784381D01*
X180157333Y-116736762D01*
X180109714Y-116689143D01*
X180062095Y-116593905D01*
X180014476Y-116403429D01*
X180014476Y-116165333D01*
X180062095Y-115974857D01*
X180109714Y-115879619D01*
X180157333Y-115832000D01*
X180252571Y-115784381D01*
X175633095Y-114625381D02*
X175633095Y-113625381D01*
X176204524Y-114625381D02*
X175775952Y-114053952D01*
X176204524Y-113625381D02*
X175633095Y-114196810D01*
X124769714Y-116784381D02*
X124769714Y-115784381D01*
X125007809Y-115784381D01*
X125150667Y-115832000D01*
X125245905Y-115927238D01*
X125293524Y-116022476D01*
X125341143Y-116212952D01*
X125341143Y-116355810D01*
X125293524Y-116546286D01*
X125245905Y-116641524D01*
X125150667Y-116736762D01*
X125007809Y-116784381D01*
X124769714Y-116784381D01*
X126293524Y-116784381D02*
X125722095Y-116784381D01*
X126007809Y-116784381D02*
X126007809Y-115784381D01*
X125912571Y-115927238D01*
X125817333Y-116022476D01*
X125722095Y-116070095D01*
X127245905Y-116784381D02*
X126674476Y-116784381D01*
X126960190Y-116784381D02*
X126960190Y-115784381D01*
X126864952Y-115927238D01*
X126769714Y-116022476D01*
X126674476Y-116070095D01*
X122293095Y-114625381D02*
X122293095Y-113625381D01*
X122864524Y-114625381D02*
X122435952Y-114053952D01*
X122864524Y-113625381D02*
X122293095Y-114196810D01*
X185729714Y-116784381D02*
X185729714Y-115784381D01*
X185967809Y-115784381D01*
X186110667Y-115832000D01*
X186205905Y-115927238D01*
X186253524Y-116022476D01*
X186301143Y-116212952D01*
X186301143Y-116355810D01*
X186253524Y-116546286D01*
X186205905Y-116641524D01*
X186110667Y-116736762D01*
X185967809Y-116784381D01*
X185729714Y-116784381D01*
X187253524Y-116784381D02*
X186682095Y-116784381D01*
X186967809Y-116784381D02*
X186967809Y-115784381D01*
X186872571Y-115927238D01*
X186777333Y-116022476D01*
X186682095Y-116070095D01*
X187634476Y-115879619D02*
X187682095Y-115832000D01*
X187777333Y-115784381D01*
X188015429Y-115784381D01*
X188110667Y-115832000D01*
X188158286Y-115879619D01*
X188205905Y-115974857D01*
X188205905Y-116070095D01*
X188158286Y-116212952D01*
X187586857Y-116784381D01*
X188205905Y-116784381D01*
X183253095Y-114625381D02*
X183253095Y-113625381D01*
X183824524Y-114625381D02*
X183395952Y-114053952D01*
X183824524Y-113625381D02*
X183253095Y-114196810D01*
X132389714Y-116784381D02*
X132389714Y-115784381D01*
X132627809Y-115784381D01*
X132770667Y-115832000D01*
X132865905Y-115927238D01*
X132913524Y-116022476D01*
X132961143Y-116212952D01*
X132961143Y-116355810D01*
X132913524Y-116546286D01*
X132865905Y-116641524D01*
X132770667Y-116736762D01*
X132627809Y-116784381D01*
X132389714Y-116784381D01*
X133913524Y-116784381D02*
X133342095Y-116784381D01*
X133627809Y-116784381D02*
X133627809Y-115784381D01*
X133532571Y-115927238D01*
X133437333Y-116022476D01*
X133342095Y-116070095D01*
X134246857Y-115784381D02*
X134865905Y-115784381D01*
X134532571Y-116165333D01*
X134675429Y-116165333D01*
X134770667Y-116212952D01*
X134818286Y-116260571D01*
X134865905Y-116355810D01*
X134865905Y-116593905D01*
X134818286Y-116689143D01*
X134770667Y-116736762D01*
X134675429Y-116784381D01*
X134389714Y-116784381D01*
X134294476Y-116736762D01*
X134246857Y-116689143D01*
X129913095Y-114625381D02*
X129913095Y-113625381D01*
X130484524Y-114625381D02*
X130055952Y-114053952D01*
X130484524Y-113625381D02*
X129913095Y-114196810D01*
X193349714Y-116784381D02*
X193349714Y-115784381D01*
X193587809Y-115784381D01*
X193730667Y-115832000D01*
X193825905Y-115927238D01*
X193873524Y-116022476D01*
X193921143Y-116212952D01*
X193921143Y-116355810D01*
X193873524Y-116546286D01*
X193825905Y-116641524D01*
X193730667Y-116736762D01*
X193587809Y-116784381D01*
X193349714Y-116784381D01*
X194873524Y-116784381D02*
X194302095Y-116784381D01*
X194587809Y-116784381D02*
X194587809Y-115784381D01*
X194492571Y-115927238D01*
X194397333Y-116022476D01*
X194302095Y-116070095D01*
X195730667Y-116117714D02*
X195730667Y-116784381D01*
X195492571Y-115736762D02*
X195254476Y-116451048D01*
X195873524Y-116451048D01*
X190873095Y-114625381D02*
X190873095Y-113625381D01*
X191444524Y-114625381D02*
X191015952Y-114053952D01*
X191444524Y-113625381D02*
X190873095Y-114196810D01*
X140009714Y-116784381D02*
X140009714Y-115784381D01*
X140247809Y-115784381D01*
X140390667Y-115832000D01*
X140485905Y-115927238D01*
X140533524Y-116022476D01*
X140581143Y-116212952D01*
X140581143Y-116355810D01*
X140533524Y-116546286D01*
X140485905Y-116641524D01*
X140390667Y-116736762D01*
X140247809Y-116784381D01*
X140009714Y-116784381D01*
X141533524Y-116784381D02*
X140962095Y-116784381D01*
X141247809Y-116784381D02*
X141247809Y-115784381D01*
X141152571Y-115927238D01*
X141057333Y-116022476D01*
X140962095Y-116070095D01*
X142438286Y-115784381D02*
X141962095Y-115784381D01*
X141914476Y-116260571D01*
X141962095Y-116212952D01*
X142057333Y-116165333D01*
X142295429Y-116165333D01*
X142390667Y-116212952D01*
X142438286Y-116260571D01*
X142485905Y-116355810D01*
X142485905Y-116593905D01*
X142438286Y-116689143D01*
X142390667Y-116736762D01*
X142295429Y-116784381D01*
X142057333Y-116784381D01*
X141962095Y-116736762D01*
X141914476Y-116689143D01*
X137533095Y-114625381D02*
X137533095Y-113625381D01*
X138104524Y-114625381D02*
X137675952Y-114053952D01*
X138104524Y-113625381D02*
X137533095Y-114196810D01*
X200969714Y-116784381D02*
X200969714Y-115784381D01*
X201207809Y-115784381D01*
X201350667Y-115832000D01*
X201445905Y-115927238D01*
X201493524Y-116022476D01*
X201541143Y-116212952D01*
X201541143Y-116355810D01*
X201493524Y-116546286D01*
X201445905Y-116641524D01*
X201350667Y-116736762D01*
X201207809Y-116784381D01*
X200969714Y-116784381D01*
X202493524Y-116784381D02*
X201922095Y-116784381D01*
X202207809Y-116784381D02*
X202207809Y-115784381D01*
X202112571Y-115927238D01*
X202017333Y-116022476D01*
X201922095Y-116070095D01*
X203350667Y-115784381D02*
X203160190Y-115784381D01*
X203064952Y-115832000D01*
X203017333Y-115879619D01*
X202922095Y-116022476D01*
X202874476Y-116212952D01*
X202874476Y-116593905D01*
X202922095Y-116689143D01*
X202969714Y-116736762D01*
X203064952Y-116784381D01*
X203255429Y-116784381D01*
X203350667Y-116736762D01*
X203398286Y-116689143D01*
X203445905Y-116593905D01*
X203445905Y-116355810D01*
X203398286Y-116260571D01*
X203350667Y-116212952D01*
X203255429Y-116165333D01*
X203064952Y-116165333D01*
X202969714Y-116212952D01*
X202922095Y-116260571D01*
X202874476Y-116355810D01*
X198493095Y-114625381D02*
X198493095Y-113625381D01*
X199064524Y-114625381D02*
X198635952Y-114053952D01*
X199064524Y-113625381D02*
X198493095Y-114196810D01*
D14*
X46289444Y-107199369D02*
X46289444Y-106413179D01*
X46773253Y-106836512D01*
X46773253Y-106655084D01*
X46833730Y-106534131D01*
X46894206Y-106473655D01*
X47015158Y-106413179D01*
X47317539Y-106413179D01*
X47438491Y-106473655D01*
X47498968Y-106534131D01*
X47559444Y-106655084D01*
X47559444Y-107017941D01*
X47498968Y-107138893D01*
X47438491Y-107199369D01*
X47498968Y-105808417D02*
X47559444Y-105808417D01*
X47680396Y-105868893D01*
X47740872Y-105929369D01*
X46289444Y-104659369D02*
X46289444Y-105264131D01*
X46894206Y-105324607D01*
X46833730Y-105264131D01*
X46773253Y-105143179D01*
X46773253Y-104840798D01*
X46833730Y-104719845D01*
X46894206Y-104659369D01*
X47015158Y-104598893D01*
X47317539Y-104598893D01*
X47438491Y-104659369D01*
X47498968Y-104719845D01*
X47559444Y-104840798D01*
X47559444Y-105143179D01*
X47498968Y-105264131D01*
X47438491Y-105324607D01*
X47559444Y-104054607D02*
X46712777Y-104054607D01*
X46833730Y-104054607D02*
X46773253Y-103994131D01*
X46712777Y-103873178D01*
X46712777Y-103691750D01*
X46773253Y-103570798D01*
X46894206Y-103510321D01*
X47559444Y-103510321D01*
X46894206Y-103510321D02*
X46773253Y-103449845D01*
X46712777Y-103328893D01*
X46712777Y-103147464D01*
X46773253Y-103026512D01*
X46894206Y-102966036D01*
X47559444Y-102966036D01*
X47559444Y-102361274D02*
X46712777Y-102361274D01*
X46833730Y-102361274D02*
X46773253Y-102300798D01*
X46712777Y-102179845D01*
X46712777Y-101998417D01*
X46773253Y-101877465D01*
X46894206Y-101816988D01*
X47559444Y-101816988D01*
X46894206Y-101816988D02*
X46773253Y-101756512D01*
X46712777Y-101635560D01*
X46712777Y-101454131D01*
X46773253Y-101333179D01*
X46894206Y-101272703D01*
X47559444Y-101272703D01*
D12*
X90328762Y-100496619D02*
X90233524Y-100449000D01*
X90138286Y-100353762D01*
X89995429Y-100210905D01*
X89900190Y-100163286D01*
X89804952Y-100163286D01*
X89852571Y-100401381D02*
X89757333Y-100353762D01*
X89662095Y-100258524D01*
X89614476Y-100068048D01*
X89614476Y-99734714D01*
X89662095Y-99544238D01*
X89757333Y-99449000D01*
X89852571Y-99401381D01*
X90043048Y-99401381D01*
X90138286Y-99449000D01*
X90233524Y-99544238D01*
X90281143Y-99734714D01*
X90281143Y-100068048D01*
X90233524Y-100258524D01*
X90138286Y-100353762D01*
X90043048Y-100401381D01*
X89852571Y-100401381D01*
X90662095Y-99496619D02*
X90709714Y-99449000D01*
X90804952Y-99401381D01*
X91043048Y-99401381D01*
X91138286Y-99449000D01*
X91185905Y-99496619D01*
X91233524Y-99591857D01*
X91233524Y-99687095D01*
X91185905Y-99829952D01*
X90614476Y-100401381D01*
X91233524Y-100401381D01*
X98202762Y-100496619D02*
X98107524Y-100449000D01*
X98012286Y-100353762D01*
X97869429Y-100210905D01*
X97774190Y-100163286D01*
X97678952Y-100163286D01*
X97726571Y-100401381D02*
X97631333Y-100353762D01*
X97536095Y-100258524D01*
X97488476Y-100068048D01*
X97488476Y-99734714D01*
X97536095Y-99544238D01*
X97631333Y-99449000D01*
X97726571Y-99401381D01*
X97917048Y-99401381D01*
X98012286Y-99449000D01*
X98107524Y-99544238D01*
X98155143Y-99734714D01*
X98155143Y-100068048D01*
X98107524Y-100258524D01*
X98012286Y-100353762D01*
X97917048Y-100401381D01*
X97726571Y-100401381D01*
X98488476Y-99401381D02*
X99107524Y-99401381D01*
X98774190Y-99782333D01*
X98917048Y-99782333D01*
X99012286Y-99829952D01*
X99059905Y-99877571D01*
X99107524Y-99972810D01*
X99107524Y-100210905D01*
X99059905Y-100306143D01*
X99012286Y-100353762D01*
X98917048Y-100401381D01*
X98631333Y-100401381D01*
X98536095Y-100353762D01*
X98488476Y-100306143D01*
X105822762Y-100496619D02*
X105727524Y-100449000D01*
X105632286Y-100353762D01*
X105489429Y-100210905D01*
X105394190Y-100163286D01*
X105298952Y-100163286D01*
X105346571Y-100401381D02*
X105251333Y-100353762D01*
X105156095Y-100258524D01*
X105108476Y-100068048D01*
X105108476Y-99734714D01*
X105156095Y-99544238D01*
X105251333Y-99449000D01*
X105346571Y-99401381D01*
X105537048Y-99401381D01*
X105632286Y-99449000D01*
X105727524Y-99544238D01*
X105775143Y-99734714D01*
X105775143Y-100068048D01*
X105727524Y-100258524D01*
X105632286Y-100353762D01*
X105537048Y-100401381D01*
X105346571Y-100401381D01*
X106632286Y-99734714D02*
X106632286Y-100401381D01*
X106394190Y-99353762D02*
X106156095Y-100068048D01*
X106775143Y-100068048D01*
X113442762Y-100496619D02*
X113347524Y-100449000D01*
X113252286Y-100353762D01*
X113109429Y-100210905D01*
X113014190Y-100163286D01*
X112918952Y-100163286D01*
X112966571Y-100401381D02*
X112871333Y-100353762D01*
X112776095Y-100258524D01*
X112728476Y-100068048D01*
X112728476Y-99734714D01*
X112776095Y-99544238D01*
X112871333Y-99449000D01*
X112966571Y-99401381D01*
X113157048Y-99401381D01*
X113252286Y-99449000D01*
X113347524Y-99544238D01*
X113395143Y-99734714D01*
X113395143Y-100068048D01*
X113347524Y-100258524D01*
X113252286Y-100353762D01*
X113157048Y-100401381D01*
X112966571Y-100401381D01*
X114299905Y-99401381D02*
X113823714Y-99401381D01*
X113776095Y-99877571D01*
X113823714Y-99829952D01*
X113918952Y-99782333D01*
X114157048Y-99782333D01*
X114252286Y-99829952D01*
X114299905Y-99877571D01*
X114347524Y-99972810D01*
X114347524Y-100210905D01*
X114299905Y-100306143D01*
X114252286Y-100353762D01*
X114157048Y-100401381D01*
X113918952Y-100401381D01*
X113823714Y-100353762D01*
X113776095Y-100306143D01*
X121062762Y-100496619D02*
X120967524Y-100449000D01*
X120872286Y-100353762D01*
X120729429Y-100210905D01*
X120634190Y-100163286D01*
X120538952Y-100163286D01*
X120586571Y-100401381D02*
X120491333Y-100353762D01*
X120396095Y-100258524D01*
X120348476Y-100068048D01*
X120348476Y-99734714D01*
X120396095Y-99544238D01*
X120491333Y-99449000D01*
X120586571Y-99401381D01*
X120777048Y-99401381D01*
X120872286Y-99449000D01*
X120967524Y-99544238D01*
X121015143Y-99734714D01*
X121015143Y-100068048D01*
X120967524Y-100258524D01*
X120872286Y-100353762D01*
X120777048Y-100401381D01*
X120586571Y-100401381D01*
X121872286Y-99401381D02*
X121681809Y-99401381D01*
X121586571Y-99449000D01*
X121538952Y-99496619D01*
X121443714Y-99639476D01*
X121396095Y-99829952D01*
X121396095Y-100210905D01*
X121443714Y-100306143D01*
X121491333Y-100353762D01*
X121586571Y-100401381D01*
X121777048Y-100401381D01*
X121872286Y-100353762D01*
X121919905Y-100306143D01*
X121967524Y-100210905D01*
X121967524Y-99972810D01*
X121919905Y-99877571D01*
X121872286Y-99829952D01*
X121777048Y-99782333D01*
X121586571Y-99782333D01*
X121491333Y-99829952D01*
X121443714Y-99877571D01*
X121396095Y-99972810D01*
X128682762Y-100496619D02*
X128587524Y-100449000D01*
X128492286Y-100353762D01*
X128349429Y-100210905D01*
X128254190Y-100163286D01*
X128158952Y-100163286D01*
X128206571Y-100401381D02*
X128111333Y-100353762D01*
X128016095Y-100258524D01*
X127968476Y-100068048D01*
X127968476Y-99734714D01*
X128016095Y-99544238D01*
X128111333Y-99449000D01*
X128206571Y-99401381D01*
X128397048Y-99401381D01*
X128492286Y-99449000D01*
X128587524Y-99544238D01*
X128635143Y-99734714D01*
X128635143Y-100068048D01*
X128587524Y-100258524D01*
X128492286Y-100353762D01*
X128397048Y-100401381D01*
X128206571Y-100401381D01*
X128968476Y-99401381D02*
X129635143Y-99401381D01*
X129206571Y-100401381D01*
X136302762Y-100496619D02*
X136207524Y-100449000D01*
X136112286Y-100353762D01*
X135969429Y-100210905D01*
X135874190Y-100163286D01*
X135778952Y-100163286D01*
X135826571Y-100401381D02*
X135731333Y-100353762D01*
X135636095Y-100258524D01*
X135588476Y-100068048D01*
X135588476Y-99734714D01*
X135636095Y-99544238D01*
X135731333Y-99449000D01*
X135826571Y-99401381D01*
X136017048Y-99401381D01*
X136112286Y-99449000D01*
X136207524Y-99544238D01*
X136255143Y-99734714D01*
X136255143Y-100068048D01*
X136207524Y-100258524D01*
X136112286Y-100353762D01*
X136017048Y-100401381D01*
X135826571Y-100401381D01*
X136826571Y-99829952D02*
X136731333Y-99782333D01*
X136683714Y-99734714D01*
X136636095Y-99639476D01*
X136636095Y-99591857D01*
X136683714Y-99496619D01*
X136731333Y-99449000D01*
X136826571Y-99401381D01*
X137017048Y-99401381D01*
X137112286Y-99449000D01*
X137159905Y-99496619D01*
X137207524Y-99591857D01*
X137207524Y-99639476D01*
X137159905Y-99734714D01*
X137112286Y-99782333D01*
X137017048Y-99829952D01*
X136826571Y-99829952D01*
X136731333Y-99877571D01*
X136683714Y-99925190D01*
X136636095Y-100020429D01*
X136636095Y-100210905D01*
X136683714Y-100306143D01*
X136731333Y-100353762D01*
X136826571Y-100401381D01*
X137017048Y-100401381D01*
X137112286Y-100353762D01*
X137159905Y-100306143D01*
X137207524Y-100210905D01*
X137207524Y-100020429D01*
X137159905Y-99925190D01*
X137112286Y-99877571D01*
X137017048Y-99829952D01*
X143922762Y-100496619D02*
X143827524Y-100449000D01*
X143732286Y-100353762D01*
X143589429Y-100210905D01*
X143494190Y-100163286D01*
X143398952Y-100163286D01*
X143446571Y-100401381D02*
X143351333Y-100353762D01*
X143256095Y-100258524D01*
X143208476Y-100068048D01*
X143208476Y-99734714D01*
X143256095Y-99544238D01*
X143351333Y-99449000D01*
X143446571Y-99401381D01*
X143637048Y-99401381D01*
X143732286Y-99449000D01*
X143827524Y-99544238D01*
X143875143Y-99734714D01*
X143875143Y-100068048D01*
X143827524Y-100258524D01*
X143732286Y-100353762D01*
X143637048Y-100401381D01*
X143446571Y-100401381D01*
X144351333Y-100401381D02*
X144541809Y-100401381D01*
X144637048Y-100353762D01*
X144684667Y-100306143D01*
X144779905Y-100163286D01*
X144827524Y-99972810D01*
X144827524Y-99591857D01*
X144779905Y-99496619D01*
X144732286Y-99449000D01*
X144637048Y-99401381D01*
X144446571Y-99401381D01*
X144351333Y-99449000D01*
X144303714Y-99496619D01*
X144256095Y-99591857D01*
X144256095Y-99829952D01*
X144303714Y-99925190D01*
X144351333Y-99972810D01*
X144446571Y-100020429D01*
X144637048Y-100020429D01*
X144732286Y-99972810D01*
X144779905Y-99925190D01*
X144827524Y-99829952D01*
X71440381Y-104560666D02*
X70964190Y-104894000D01*
X71440381Y-105132095D02*
X70440381Y-105132095D01*
X70440381Y-104751142D01*
X70488000Y-104655904D01*
X70535619Y-104608285D01*
X70630857Y-104560666D01*
X70773714Y-104560666D01*
X70868952Y-104608285D01*
X70916571Y-104655904D01*
X70964190Y-104751142D01*
X70964190Y-105132095D01*
X71440381Y-103608285D02*
X71440381Y-104179714D01*
X71440381Y-103894000D02*
X70440381Y-103894000D01*
X70583238Y-103989238D01*
X70678476Y-104084476D01*
X70726095Y-104179714D01*
X71207334Y-108148381D02*
X70874000Y-107672190D01*
X70635905Y-108148381D02*
X70635905Y-107148381D01*
X71016858Y-107148381D01*
X71112096Y-107196000D01*
X71159715Y-107243619D01*
X71207334Y-107338857D01*
X71207334Y-107481714D01*
X71159715Y-107576952D01*
X71112096Y-107624571D01*
X71016858Y-107672190D01*
X70635905Y-107672190D01*
X71588286Y-107243619D02*
X71635905Y-107196000D01*
X71731143Y-107148381D01*
X71969239Y-107148381D01*
X72064477Y-107196000D01*
X72112096Y-107243619D01*
X72159715Y-107338857D01*
X72159715Y-107434095D01*
X72112096Y-107576952D01*
X71540667Y-108148381D01*
X72159715Y-108148381D01*
X68270381Y-113704666D02*
X67794190Y-114038000D01*
X68270381Y-114276095D02*
X67270381Y-114276095D01*
X67270381Y-113895142D01*
X67318000Y-113799904D01*
X67365619Y-113752285D01*
X67460857Y-113704666D01*
X67603714Y-113704666D01*
X67698952Y-113752285D01*
X67746571Y-113799904D01*
X67794190Y-113895142D01*
X67794190Y-114276095D01*
X67270381Y-113371333D02*
X67270381Y-112752285D01*
X67651333Y-113085619D01*
X67651333Y-112942761D01*
X67698952Y-112847523D01*
X67746571Y-112799904D01*
X67841810Y-112752285D01*
X68079905Y-112752285D01*
X68175143Y-112799904D01*
X68222762Y-112847523D01*
X68270381Y-112942761D01*
X68270381Y-113228476D01*
X68222762Y-113323714D01*
X68175143Y-113371333D01*
X79700381Y-116752666D02*
X79224190Y-117086000D01*
X79700381Y-117324095D02*
X78700381Y-117324095D01*
X78700381Y-116943142D01*
X78748000Y-116847904D01*
X78795619Y-116800285D01*
X78890857Y-116752666D01*
X79033714Y-116752666D01*
X79128952Y-116800285D01*
X79176571Y-116847904D01*
X79224190Y-116943142D01*
X79224190Y-117324095D01*
X79033714Y-115895523D02*
X79700381Y-115895523D01*
X78652762Y-116133619D02*
X79367048Y-116371714D01*
X79367048Y-115752666D01*
X73747334Y-116530381D02*
X73414000Y-116054190D01*
X73175905Y-116530381D02*
X73175905Y-115530381D01*
X73556858Y-115530381D01*
X73652096Y-115578000D01*
X73699715Y-115625619D01*
X73747334Y-115720857D01*
X73747334Y-115863714D01*
X73699715Y-115958952D01*
X73652096Y-116006571D01*
X73556858Y-116054190D01*
X73175905Y-116054190D01*
X74652096Y-115530381D02*
X74175905Y-115530381D01*
X74128286Y-116006571D01*
X74175905Y-115958952D01*
X74271143Y-115911333D01*
X74509239Y-115911333D01*
X74604477Y-115958952D01*
X74652096Y-116006571D01*
X74699715Y-116101810D01*
X74699715Y-116339905D01*
X74652096Y-116435143D01*
X74604477Y-116482762D01*
X74509239Y-116530381D01*
X74271143Y-116530381D01*
X74175905Y-116482762D01*
X74128286Y-116435143D01*
X70191334Y-120594381D02*
X69858000Y-120118190D01*
X69619905Y-120594381D02*
X69619905Y-119594381D01*
X70000858Y-119594381D01*
X70096096Y-119642000D01*
X70143715Y-119689619D01*
X70191334Y-119784857D01*
X70191334Y-119927714D01*
X70143715Y-120022952D01*
X70096096Y-120070571D01*
X70000858Y-120118190D01*
X69619905Y-120118190D01*
X71048477Y-119594381D02*
X70858000Y-119594381D01*
X70762762Y-119642000D01*
X70715143Y-119689619D01*
X70619905Y-119832476D01*
X70572286Y-120022952D01*
X70572286Y-120403905D01*
X70619905Y-120499143D01*
X70667524Y-120546762D01*
X70762762Y-120594381D01*
X70953239Y-120594381D01*
X71048477Y-120546762D01*
X71096096Y-120499143D01*
X71143715Y-120403905D01*
X71143715Y-120165810D01*
X71096096Y-120070571D01*
X71048477Y-120022952D01*
X70953239Y-119975333D01*
X70762762Y-119975333D01*
X70667524Y-120022952D01*
X70619905Y-120070571D01*
X70572286Y-120165810D01*
X57978381Y-106846666D02*
X57502190Y-107180000D01*
X57978381Y-107418095D02*
X56978381Y-107418095D01*
X56978381Y-107037142D01*
X57026000Y-106941904D01*
X57073619Y-106894285D01*
X57168857Y-106846666D01*
X57311714Y-106846666D01*
X57406952Y-106894285D01*
X57454571Y-106941904D01*
X57502190Y-107037142D01*
X57502190Y-107418095D01*
X56978381Y-106513333D02*
X56978381Y-105846666D01*
X57978381Y-106275238D01*
X54554381Y-112942666D02*
X54078190Y-113276000D01*
X54554381Y-113514095D02*
X53554381Y-113514095D01*
X53554381Y-113133142D01*
X53602000Y-113037904D01*
X53649619Y-112990285D01*
X53744857Y-112942666D01*
X53887714Y-112942666D01*
X53982952Y-112990285D01*
X54030571Y-113037904D01*
X54078190Y-113133142D01*
X54078190Y-113514095D01*
X53982952Y-112371238D02*
X53935333Y-112466476D01*
X53887714Y-112514095D01*
X53792476Y-112561714D01*
X53744857Y-112561714D01*
X53649619Y-112514095D01*
X53602000Y-112466476D01*
X53554381Y-112371238D01*
X53554381Y-112180761D01*
X53602000Y-112085523D01*
X53649619Y-112037904D01*
X53744857Y-111990285D01*
X53792476Y-111990285D01*
X53887714Y-112037904D01*
X53935333Y-112085523D01*
X53982952Y-112180761D01*
X53982952Y-112371238D01*
X54030571Y-112466476D01*
X54078190Y-112514095D01*
X54173429Y-112561714D01*
X54363905Y-112561714D01*
X54459143Y-112514095D01*
X54506762Y-112466476D01*
X54554381Y-112371238D01*
X54554381Y-112180761D01*
X54506762Y-112085523D01*
X54459143Y-112037904D01*
X54363905Y-111990285D01*
X54173429Y-111990285D01*
X54078190Y-112037904D01*
X54030571Y-112085523D01*
X53982952Y-112180761D01*
X60285334Y-115895381D02*
X59952000Y-115419190D01*
X59713905Y-115895381D02*
X59713905Y-114895381D01*
X60094858Y-114895381D01*
X60190096Y-114943000D01*
X60237715Y-114990619D01*
X60285334Y-115085857D01*
X60285334Y-115228714D01*
X60237715Y-115323952D01*
X60190096Y-115371571D01*
X60094858Y-115419190D01*
X59713905Y-115419190D01*
X60761524Y-115895381D02*
X60952000Y-115895381D01*
X61047239Y-115847762D01*
X61094858Y-115800143D01*
X61190096Y-115657286D01*
X61237715Y-115466810D01*
X61237715Y-115085857D01*
X61190096Y-114990619D01*
X61142477Y-114943000D01*
X61047239Y-114895381D01*
X60856762Y-114895381D01*
X60761524Y-114943000D01*
X60713905Y-114990619D01*
X60666286Y-115085857D01*
X60666286Y-115323952D01*
X60713905Y-115419190D01*
X60761524Y-115466810D01*
X60856762Y-115514429D01*
X61047239Y-115514429D01*
X61142477Y-115466810D01*
X61190096Y-115419190D01*
X61237715Y-115323952D01*
X67122381Y-118498857D02*
X66646190Y-118832191D01*
X67122381Y-119070286D02*
X66122381Y-119070286D01*
X66122381Y-118689333D01*
X66170000Y-118594095D01*
X66217619Y-118546476D01*
X66312857Y-118498857D01*
X66455714Y-118498857D01*
X66550952Y-118546476D01*
X66598571Y-118594095D01*
X66646190Y-118689333D01*
X66646190Y-119070286D01*
X67122381Y-117546476D02*
X67122381Y-118117905D01*
X67122381Y-117832191D02*
X66122381Y-117832191D01*
X66265238Y-117927429D01*
X66360476Y-118022667D01*
X66408095Y-118117905D01*
X66122381Y-116927429D02*
X66122381Y-116832190D01*
X66170000Y-116736952D01*
X66217619Y-116689333D01*
X66312857Y-116641714D01*
X66503333Y-116594095D01*
X66741429Y-116594095D01*
X66931905Y-116641714D01*
X67027143Y-116689333D01*
X67074762Y-116736952D01*
X67122381Y-116832190D01*
X67122381Y-116927429D01*
X67074762Y-117022667D01*
X67027143Y-117070286D01*
X66931905Y-117117905D01*
X66741429Y-117165524D01*
X66503333Y-117165524D01*
X66312857Y-117117905D01*
X66217619Y-117070286D01*
X66170000Y-117022667D01*
X66122381Y-116927429D01*
X62857143Y-102052381D02*
X62523809Y-101576190D01*
X62285714Y-102052381D02*
X62285714Y-101052381D01*
X62666667Y-101052381D01*
X62761905Y-101100000D01*
X62809524Y-101147619D01*
X62857143Y-101242857D01*
X62857143Y-101385714D01*
X62809524Y-101480952D01*
X62761905Y-101528571D01*
X62666667Y-101576190D01*
X62285714Y-101576190D01*
X63809524Y-102052381D02*
X63238095Y-102052381D01*
X63523809Y-102052381D02*
X63523809Y-101052381D01*
X63428571Y-101195238D01*
X63333333Y-101290476D01*
X63238095Y-101338095D01*
X64761905Y-102052381D02*
X64190476Y-102052381D01*
X64476190Y-102052381D02*
X64476190Y-101052381D01*
X64380952Y-101195238D01*
X64285714Y-101290476D01*
X64190476Y-101338095D01*
X57015143Y-125034381D02*
X56681809Y-124558190D01*
X56443714Y-125034381D02*
X56443714Y-124034381D01*
X56824667Y-124034381D01*
X56919905Y-124082000D01*
X56967524Y-124129619D01*
X57015143Y-124224857D01*
X57015143Y-124367714D01*
X56967524Y-124462952D01*
X56919905Y-124510571D01*
X56824667Y-124558190D01*
X56443714Y-124558190D01*
X57967524Y-125034381D02*
X57396095Y-125034381D01*
X57681809Y-125034381D02*
X57681809Y-124034381D01*
X57586571Y-124177238D01*
X57491333Y-124272476D01*
X57396095Y-124320095D01*
X58348476Y-124129619D02*
X58396095Y-124082000D01*
X58491333Y-124034381D01*
X58729429Y-124034381D01*
X58824667Y-124082000D01*
X58872286Y-124129619D01*
X58919905Y-124224857D01*
X58919905Y-124320095D01*
X58872286Y-124462952D01*
X58300857Y-125034381D01*
X58919905Y-125034381D01*
X62738095Y-109688381D02*
X62738095Y-110497905D01*
X62785714Y-110593143D01*
X62833333Y-110640762D01*
X62928571Y-110688381D01*
X63119048Y-110688381D01*
X63214286Y-110640762D01*
X63261905Y-110593143D01*
X63309524Y-110497905D01*
X63309524Y-109688381D01*
X64309524Y-110688381D02*
X63738095Y-110688381D01*
X64023809Y-110688381D02*
X64023809Y-109688381D01*
X63928571Y-109831238D01*
X63833333Y-109926476D01*
X63738095Y-109974095D01*
X77724095Y-105624381D02*
X77724095Y-106433905D01*
X77771714Y-106529143D01*
X77819333Y-106576762D01*
X77914571Y-106624381D01*
X78105048Y-106624381D01*
X78200286Y-106576762D01*
X78247905Y-106529143D01*
X78295524Y-106433905D01*
X78295524Y-105624381D01*
X78724095Y-105719619D02*
X78771714Y-105672000D01*
X78866952Y-105624381D01*
X79105048Y-105624381D01*
X79200286Y-105672000D01*
X79247905Y-105719619D01*
X79295524Y-105814857D01*
X79295524Y-105910095D01*
X79247905Y-106052952D01*
X78676476Y-106624381D01*
X79295524Y-106624381D01*
X67246572Y-125769619D02*
X67151334Y-125722000D01*
X67056096Y-125626762D01*
X66913239Y-125483905D01*
X66818000Y-125436286D01*
X66722762Y-125436286D01*
X66770381Y-125674381D02*
X66675143Y-125626762D01*
X66579905Y-125531524D01*
X66532286Y-125341048D01*
X66532286Y-125007714D01*
X66579905Y-124817238D01*
X66675143Y-124722000D01*
X66770381Y-124674381D01*
X66960858Y-124674381D01*
X67056096Y-124722000D01*
X67151334Y-124817238D01*
X67198953Y-125007714D01*
X67198953Y-125341048D01*
X67151334Y-125531524D01*
X67056096Y-125626762D01*
X66960858Y-125674381D01*
X66770381Y-125674381D01*
X68151334Y-125674381D02*
X67579905Y-125674381D01*
X67865619Y-125674381D02*
X67865619Y-124674381D01*
X67770381Y-124817238D01*
X67675143Y-124912476D01*
X67579905Y-124960095D01*
X68770381Y-124674381D02*
X68865620Y-124674381D01*
X68960858Y-124722000D01*
X69008477Y-124769619D01*
X69056096Y-124864857D01*
X69103715Y-125055333D01*
X69103715Y-125293429D01*
X69056096Y-125483905D01*
X69008477Y-125579143D01*
X68960858Y-125626762D01*
X68865620Y-125674381D01*
X68770381Y-125674381D01*
X68675143Y-125626762D01*
X68627524Y-125579143D01*
X68579905Y-125483905D01*
X68532286Y-125293429D01*
X68532286Y-125055333D01*
X68579905Y-124864857D01*
X68627524Y-124769619D01*
X68675143Y-124722000D01*
X68770381Y-124674381D01*
X75557143Y-123896381D02*
X75223809Y-123420190D01*
X74985714Y-123896381D02*
X74985714Y-122896381D01*
X75366667Y-122896381D01*
X75461905Y-122944000D01*
X75509524Y-122991619D01*
X75557143Y-123086857D01*
X75557143Y-123229714D01*
X75509524Y-123324952D01*
X75461905Y-123372571D01*
X75366667Y-123420190D01*
X74985714Y-123420190D01*
X76509524Y-123896381D02*
X75938095Y-123896381D01*
X76223809Y-123896381D02*
X76223809Y-122896381D01*
X76128571Y-123039238D01*
X76033333Y-123134476D01*
X75938095Y-123182095D01*
X76842857Y-122896381D02*
X77461905Y-122896381D01*
X77128571Y-123277333D01*
X77271429Y-123277333D01*
X77366667Y-123324952D01*
X77414286Y-123372571D01*
X77461905Y-123467810D01*
X77461905Y-123705905D01*
X77414286Y-123801143D01*
X77366667Y-123848762D01*
X77271429Y-123896381D01*
X76985714Y-123896381D01*
X76890476Y-123848762D01*
X76842857Y-123801143D01*
X62896762Y-125769619D02*
X62801524Y-125722000D01*
X62706286Y-125626762D01*
X62563429Y-125483905D01*
X62468190Y-125436286D01*
X62372952Y-125436286D01*
X62420571Y-125674381D02*
X62325333Y-125626762D01*
X62230095Y-125531524D01*
X62182476Y-125341048D01*
X62182476Y-125007714D01*
X62230095Y-124817238D01*
X62325333Y-124722000D01*
X62420571Y-124674381D01*
X62611048Y-124674381D01*
X62706286Y-124722000D01*
X62801524Y-124817238D01*
X62849143Y-125007714D01*
X62849143Y-125341048D01*
X62801524Y-125531524D01*
X62706286Y-125626762D01*
X62611048Y-125674381D01*
X62420571Y-125674381D01*
X63801524Y-125674381D02*
X63230095Y-125674381D01*
X63515809Y-125674381D02*
X63515809Y-124674381D01*
X63420571Y-124817238D01*
X63325333Y-124912476D01*
X63230095Y-124960095D01*
M02*
