G04 #@! TF.FileFunction,Soldermask,Bot*
%FSLAX46Y46*%
G04 Gerber Fmt 4.6, Leading zero omitted, Abs format (unit mm)*
G04 Created by KiCad (PCBNEW 4.0.2-stable) date Saturday, August 27, 2016 'PMt' 12:15:44 PM*
%MOMM*%
G01*
G04 APERTURE LIST*
%ADD10C,0.100000*%
%ADD11R,3.900120X3.900120*%
%ADD12R,2.300000X2.400000*%
%ADD13C,2.300000*%
%ADD14C,1.898600*%
%ADD15O,2.940000X2.940000*%
%ADD16O,2.647900X2.647900*%
G04 APERTURE END LIST*
D10*
D11*
X47094140Y-118364000D03*
X41094660Y-118364000D03*
X44094400Y-123063000D03*
D12*
X86106000Y-112268000D03*
D13*
X88646000Y-112268000D03*
D12*
X147320000Y-112268000D03*
D13*
X149860000Y-112268000D03*
D12*
X93980000Y-112268000D03*
D13*
X96520000Y-112268000D03*
D12*
X154940000Y-112268000D03*
D13*
X157480000Y-112268000D03*
D12*
X101600000Y-112268000D03*
D13*
X104140000Y-112268000D03*
D12*
X162560000Y-112268000D03*
D13*
X165100000Y-112268000D03*
D12*
X109220000Y-112268000D03*
D13*
X111760000Y-112268000D03*
D12*
X170180000Y-112268000D03*
D13*
X172720000Y-112268000D03*
D12*
X116840000Y-112268000D03*
D13*
X119380000Y-112268000D03*
D12*
X177800000Y-112268000D03*
D13*
X180340000Y-112268000D03*
D12*
X124460000Y-112268000D03*
D13*
X127000000Y-112268000D03*
D12*
X185420000Y-112268000D03*
D13*
X187960000Y-112268000D03*
D12*
X132080000Y-112268000D03*
D13*
X134620000Y-112268000D03*
D12*
X193040000Y-112268000D03*
D13*
X195580000Y-112268000D03*
D12*
X139700000Y-112268000D03*
D13*
X142240000Y-112268000D03*
D12*
X200660000Y-112268000D03*
D13*
X203200000Y-112268000D03*
D14*
X39527480Y-100256340D03*
X39527480Y-110253780D03*
X44528740Y-105255060D03*
D15*
X39527480Y-105255060D03*
D16*
X44528740Y-102857300D03*
X44528740Y-107655360D03*
X44528740Y-110355380D03*
X44528740Y-100157280D03*
M02*
