G04 #@! TF.FileFunction,Soldermask,Top*
%FSLAX46Y46*%
G04 Gerber Fmt 4.6, Leading zero omitted, Abs format (unit mm)*
G04 Created by KiCad (PCBNEW 4.0.2-stable) date Sunday, September 18, 2016 'AMt' 08:39:15 AM*
%MOMM*%
G01*
G04 APERTURE LIST*
%ADD10C,0.100000*%
%ADD11R,1.600000X1.150000*%
%ADD12R,1.150000X1.600000*%
%ADD13R,3.900120X3.900120*%
%ADD14R,2.300000X2.400000*%
%ADD15C,2.300000*%
%ADD16C,1.898600*%
%ADD17O,2.940000X2.940000*%
%ADD18O,2.647900X2.647900*%
%ADD19R,1.200100X1.200100*%
%ADD20R,1.300000X1.600000*%
%ADD21R,1.600000X1.300000*%
%ADD22R,1.543000X0.908000*%
%ADD23R,2.400000X2.100000*%
%ADD24R,1.900000X1.700000*%
G04 APERTURE END LIST*
D10*
D11*
X77536000Y-113030000D03*
X79436000Y-113030000D03*
D12*
X71628000Y-113472000D03*
X71628000Y-111572000D03*
D11*
X52766000Y-110490000D03*
X50866000Y-110490000D03*
D12*
X62230000Y-118806000D03*
X62230000Y-116906000D03*
D11*
X62550000Y-105664000D03*
X64450000Y-105664000D03*
D12*
X50800000Y-120330000D03*
X50800000Y-118430000D03*
D13*
X47094140Y-118364000D03*
X41094660Y-118364000D03*
X44094400Y-123063000D03*
D14*
X86106000Y-112268000D03*
D15*
X88646000Y-112268000D03*
D14*
X147320000Y-112268000D03*
D15*
X149860000Y-112268000D03*
D14*
X93980000Y-112268000D03*
D15*
X96520000Y-112268000D03*
D14*
X154940000Y-112268000D03*
D15*
X157480000Y-112268000D03*
D14*
X101600000Y-112268000D03*
D15*
X104140000Y-112268000D03*
D14*
X162560000Y-112268000D03*
D15*
X165100000Y-112268000D03*
D14*
X109220000Y-112268000D03*
D15*
X111760000Y-112268000D03*
D14*
X170180000Y-112268000D03*
D15*
X172720000Y-112268000D03*
D14*
X116840000Y-112268000D03*
D15*
X119380000Y-112268000D03*
D14*
X177800000Y-112268000D03*
D15*
X180340000Y-112268000D03*
D14*
X124460000Y-112268000D03*
D15*
X127000000Y-112268000D03*
D14*
X185420000Y-112268000D03*
D15*
X187960000Y-112268000D03*
D14*
X132080000Y-112268000D03*
D15*
X134620000Y-112268000D03*
D14*
X193040000Y-112268000D03*
D15*
X195580000Y-112268000D03*
D14*
X139700000Y-112268000D03*
D15*
X142240000Y-112268000D03*
D14*
X200660000Y-112268000D03*
D15*
X203200000Y-112268000D03*
D16*
X39527480Y-100256340D03*
X39527480Y-110253780D03*
X44528740Y-105255060D03*
D17*
X39527480Y-105255060D03*
D18*
X44528740Y-102857300D03*
X44528740Y-107655360D03*
X44528740Y-110355380D03*
X44528740Y-100157280D03*
D19*
X87696000Y-101838760D03*
X89596000Y-101838760D03*
X88646000Y-99839780D03*
X95570000Y-101838760D03*
X97470000Y-101838760D03*
X96520000Y-99839780D03*
X103190000Y-101838760D03*
X105090000Y-101838760D03*
X104140000Y-99839780D03*
X110810000Y-101838760D03*
X112710000Y-101838760D03*
X111760000Y-99839780D03*
X118430000Y-101838760D03*
X120330000Y-101838760D03*
X119380000Y-99839780D03*
X126050000Y-101838760D03*
X127950000Y-101838760D03*
X127000000Y-99839780D03*
X133670000Y-101838760D03*
X135570000Y-101838760D03*
X134620000Y-99839780D03*
X141290000Y-101838760D03*
X143190000Y-101838760D03*
X142240000Y-99839780D03*
D20*
X69088000Y-103294000D03*
X69088000Y-105494000D03*
D21*
X69258000Y-109220000D03*
X71458000Y-109220000D03*
D20*
X69342000Y-113622000D03*
X69342000Y-111422000D03*
X77470000Y-117686000D03*
X77470000Y-115486000D03*
D21*
X71458000Y-116078000D03*
X69258000Y-116078000D03*
X69258000Y-118364000D03*
X71458000Y-118364000D03*
D20*
X55626000Y-105580000D03*
X55626000Y-107780000D03*
X55626000Y-110660000D03*
X55626000Y-112860000D03*
D21*
X64600000Y-114300000D03*
X62400000Y-114300000D03*
D20*
X64770000Y-116756000D03*
X64770000Y-118956000D03*
D21*
X62400000Y-103378000D03*
X64600000Y-103378000D03*
X58758000Y-122682000D03*
X56558000Y-122682000D03*
D22*
X66675000Y-108077000D03*
X66675000Y-109347000D03*
X66675000Y-110617000D03*
X66675000Y-111887000D03*
X60325000Y-111887000D03*
X60325000Y-110617000D03*
X60325000Y-109347000D03*
X60325000Y-108077000D03*
X75311000Y-110109000D03*
X75311000Y-107569000D03*
X75311000Y-106299000D03*
X75311000Y-105029000D03*
X75311000Y-103759000D03*
X75311000Y-102489000D03*
X75311000Y-101219000D03*
X81661000Y-101219000D03*
X81661000Y-102489000D03*
X81661000Y-103759000D03*
X81661000Y-105029000D03*
X81661000Y-106299000D03*
X81661000Y-107569000D03*
X81661000Y-108839000D03*
X81661000Y-110109000D03*
X75311000Y-108839000D03*
D19*
X66868000Y-123682760D03*
X68768000Y-123682760D03*
X67818000Y-121683780D03*
D21*
X71290000Y-123444000D03*
X73490000Y-123444000D03*
D19*
X63992760Y-123632000D03*
X63992760Y-121732000D03*
X61993780Y-122682000D03*
D23*
X52356000Y-115570000D03*
X56356000Y-115570000D03*
D24*
X56468000Y-118364000D03*
X53768000Y-118364000D03*
M02*
